<svg width="83" height="30" viewBox="0 0 83 30" fill="none" xmlns="http://www.w3.org/2000/svg">
<path d="M5.59663 20.52C6.14062 20.68 6.84463 20.68 7.26063 20.52C7.61263 20.392 7.86863 20.264 7.90063 19.816C8.18863 15.848 7.99663 7.24 7.70863 5.288C7.51663 4.072 8.06063 2.568 9.75663 2.408C11.4846 2.248 12.2526 3.304 12.4126 4.552C12.5406 5.512 12.6366 8.04 12.7006 10.888H13.9806C13.9486 7.976 13.8206 5.32 13.6606 3.528C13.5006 2.184 14.5886 0.903999 15.9326 0.775999C17.3406 0.647999 18.6526 1.608 18.8446 2.952C19.4206 7.336 19.1966 22.152 18.8446 25.704C18.6526 26.984 17.3086 28.104 16.0606 27.912C14.6206 27.688 13.6286 26.504 13.6606 25.224C13.8206 23.112 13.9486 19.624 13.9806 15.944H12.7006C12.6686 18.6 12.5726 20.872 12.3806 21.896C12.1246 23.24 11.6766 24.2 10.7486 24.84C9.59663 25.64 8.02863 25.768 6.46063 25.768C4.92463 25.768 3.67663 25.544 2.49263 24.84C1.43663 24.264 0.796625 23.24 0.540625 21.896C0.0286251 19.144 0.220625 6.952 0.508625 4.552C0.700625 3.304 1.59663 2.248 3.13263 2.408C4.89263 2.6 5.27663 4.04 5.21263 5.256C5.14863 6.088 5.08463 7.848 5.02063 9.928H5.82063C6.81263 9.928 7.51663 11.176 7.51663 12.424C7.51663 13.512 7.06863 14.984 5.82063 14.984H4.92463C4.89263 16.904 4.92463 18.664 5.02063 19.816C5.05263 20.168 5.21263 20.392 5.59663 20.52ZM25.0206 2.792C25.5966 7.176 25.3726 22.312 25.0206 25.864C24.8286 27.144 23.5486 28.2 22.2046 28.072C20.8286 27.944 19.8046 26.664 19.8366 25.384C20.2526 20.52 20.3486 8.296 19.8366 3.368C19.6766 2.024 20.8606 0.711998 22.1086 0.615999C23.5166 0.519999 24.8286 1.448 25.0206 2.792ZM42.1344 6.888C43.7984 6.888 45.5264 6.76 46.7104 6.6C47.3504 6.472 47.6384 6.056 47.7024 5.448C47.7664 4.232 47.6384 3.688 47.4464 2.792C47.1584 1.48 48.4064 0.296 49.7824 0.167999C51.1264 0.039999 52.5344 0.679998 52.7904 1.992C52.9824 3.016 53.1424 4.872 52.7904 6.856C52.5664 8.2 51.4464 9.192 50.2304 9.64C49.1104 10.088 47.0304 10.408 44.8224 10.568V11.56C48.0224 11.528 50.9984 11.4 52.9184 11.144C54.1024 11.08 55.6384 11.304 55.7024 12.968C55.7664 14.536 54.6464 15.112 53.5264 15.304C49.7184 15.752 35.1584 15.848 30.7424 15.304C29.5264 15.112 28.3744 14.28 28.5664 12.872C28.7584 11.432 30.2304 11.08 31.3504 11.144C33.3024 11.336 36.2464 11.464 39.4464 11.528V10.568C37.2384 10.408 35.1584 10.056 34.0064 9.64C32.8224 9.192 31.7024 8.2 31.4784 6.856C31.2544 5.448 31.1904 3.912 31.4784 1.992C31.6704 0.679998 33.2704 0.00799942 34.4544 0.167999C35.5744 0.327999 36.5984 1.096 36.8224 2.056H44.0864C45.1104 2.056 46.1344 2.536 46.1344 3.848C46.1344 4.968 45.3984 5.704 44.0864 5.704H36.5344C36.5344 6.152 36.7904 6.472 37.3024 6.568C38.4864 6.76 40.3424 6.888 42.1344 6.888ZM36.0544 24.616V25.16C36.0544 25.288 36.1504 25.384 36.3744 25.416C37.9104 25.64 40.8544 25.768 42.9664 25.768C45.5904 25.768 48.8544 25.576 51.2224 25.096C52.2144 24.904 53.3664 25.096 53.6864 26.28C53.9744 27.304 53.1104 28.168 52.2464 28.424C49.6864 29.192 45.7184 29.352 42.7424 29.352C39.8304 29.352 35.3824 29.256 33.4624 28.584C32.5344 28.232 31.2864 27.432 30.9984 26.216C30.6784 24.872 30.9344 23.4 31.0304 22.856C31.2864 21.544 32.5024 21.032 33.1744 21.032H47.9904V20.456C47.9904 20.328 47.8624 20.2 47.7024 20.2H33.1744C32.2784 20.2 31.3184 19.432 31.3184 18.376C31.3184 17.448 32.1824 16.616 33.1744 16.616H50.3904C51.8944 16.616 52.9184 17.512 53.0784 18.6C53.3344 20.232 53.2384 21.608 53.0144 22.632C52.7584 23.848 51.6064 24.616 50.6464 24.616H36.0544ZM58.9149 22.056C58.4989 20.36 58.6909 14.504 58.9789 13.16C59.2029 12.104 59.9389 11.208 60.8029 11.208H68.7389C68.7389 10.44 68.7709 9.576 68.7069 8.296C68.7069 8.04 68.6749 7.624 67.9389 7.624H61.1229C59.9069 7.624 59.2669 6.184 59.2669 5.096C59.2669 4.008 60.0349 2.6 61.1229 2.6H71.1709C72.0989 2.6 73.4749 3.336 73.7309 4.84C73.9549 6.472 73.9549 11.88 73.6029 13.864C73.4109 14.824 72.6749 16.232 71.2669 16.232H63.8749C63.9069 17.032 63.8749 18.216 63.9069 19.4C63.9389 19.944 64.2589 20.296 64.9949 20.424C65.7949 20.584 66.4349 20.648 67.4909 20.648C69.4109 20.648 70.9789 20.232 71.6189 19.912C72.6109 19.464 74.8189 19.784 75.2029 21.64C75.4909 22.984 74.3709 24.296 73.6669 24.584C72.0669 25.384 69.5069 25.768 67.3629 25.768C64.7069 25.768 62.5629 25.224 61.3469 24.712C60.4829 24.296 59.2669 23.464 58.9149 22.056ZM82.1149 2.792C82.7229 7.176 82.4669 22.312 82.1149 25.864C81.9229 27.144 80.5789 28.2 79.2029 28.072C77.6349 27.912 76.7069 26.664 76.7709 25.384C77.1869 20.52 77.2509 8.296 76.7709 3.368C76.5789 2.024 77.8269 0.743999 79.1069 0.615999C80.5789 0.455999 81.9229 1.448 82.1149 2.792Z" fill="white"/>
</svg>
