<svg width="27" height="27" viewBox="0 0 27 27" fill="none" xmlns="http://www.w3.org/2000/svg">
<path d="M16.0165 21.375C16.9896 21.375 17.5038 22.527 16.8546 23.2515C16.4326 23.7229 15.9159 24.1001 15.3382 24.3583C14.7605 24.6165 14.1349 24.75 13.5021 24.75C12.8694 24.75 12.2438 24.6165 11.6661 24.3583C11.0884 24.1001 10.5717 23.7229 10.1496 23.2515C9.52864 22.5585 9.97189 21.4751 10.8629 21.3829L10.9866 21.3761L16.0165 21.375ZM13.5021 2.25C15.0299 2.25 16.3214 3.26587 16.7365 4.65862L16.7883 4.851L16.7973 4.89937C18.0376 5.5988 19.0946 6.58222 19.8815 7.76902C20.6684 8.95582 21.1628 10.3122 21.3243 11.727L21.3558 12.0499L21.3771 12.375V15.6724L21.4008 15.8254C21.5548 16.6543 22.0135 17.3956 22.6866 17.9032L22.8745 18.0349L23.0568 18.1462C24.0243 18.6941 23.6868 20.133 22.6326 20.2432L22.5021 20.25H4.50214C3.34564 20.25 2.94176 18.7155 3.94751 18.1462C4.37617 17.9037 4.74654 17.5702 5.03262 17.1693C5.3187 16.7683 5.51356 16.3096 5.60351 15.8254L5.62714 15.6645L5.62826 12.3233C5.69686 10.8539 6.12457 9.42369 6.87396 8.1579C7.62335 6.89212 8.67158 5.82931 9.92689 5.0625L10.2059 4.89825L10.2171 4.84987C10.3758 4.17693 10.7374 3.56896 11.2529 3.1082C11.7684 2.64744 12.4129 2.35611 13.0994 2.27362L13.3041 2.2545L13.5021 2.25Z" fill="white"/>
</svg>
