<svg viewBox="0 0 144 26" fill="none" xmlns="http://www.w3.org/2000/svg">
<g clip-path="url(#clip0_162_1690)">
<mask id="path-2-inside-1_162_1690" fill="white">
<path d="M0 13C0 5.8203 5.8203 0 13 0H72V26H13C5.8203 26 0 20.1797 0 13Z"/>
</mask>
<path d="M-1 13C-1 5.26801 5.26801 -1 13 -1H72V1H13C6.37258 1 1 6.37258 1 13H-1ZM72 27H13C5.26801 27 -1 20.732 -1 13H1C1 19.6274 6.37258 25 13 25H72V27ZM13 27C5.26801 27 -1 20.732 -1 13C-1 5.26801 5.26801 -1 13 -1V1C6.37258 1 1 6.37258 1 13C1 19.6274 6.37258 25 13 25V27ZM72 0V26V0Z" fill="#EA2F3E" mask="url(#path-2-inside-1_162_1690)"/>
<path d="M19.956 6.234C20.0867 6.234 20.2033 6.26667 20.306 6.332C20.418 6.39733 20.474 6.50467 20.474 6.654V7.9H23.176C23.3067 7.9 23.4 7.94667 23.456 8.04C23.512 8.124 23.54 8.22667 23.54 8.348C23.54 8.46933 23.512 8.57667 23.456 8.67C23.4 8.754 23.3067 8.796 23.176 8.796H20.474V9.384C20.474 9.59867 20.488 9.78533 20.516 9.944C20.5533 10.1027 20.6093 10.2473 20.684 10.378C20.7587 10.4993 20.8567 10.6207 20.978 10.742C21.1087 10.854 21.2673 10.9707 21.454 11.092C21.79 11.316 22.112 11.5307 22.42 11.736C22.728 11.932 23.0173 12.1093 23.288 12.268C23.4187 12.3427 23.4887 12.4407 23.498 12.562C23.5073 12.6833 23.4793 12.7953 23.414 12.898C23.3487 13.0007 23.2647 13.0707 23.162 13.108C23.0593 13.136 22.9427 13.1127 22.812 13.038C22.588 12.9073 22.3267 12.7487 22.028 12.562C21.7293 12.366 21.4307 12.17 21.132 11.974C20.74 11.7127 20.46 11.5027 20.292 11.344C20.1333 11.176 20.0307 11.0173 19.984 10.868H19.97C19.9327 11.0267 19.8207 11.1993 19.634 11.386C19.4567 11.5633 19.172 11.778 18.78 12.03C18.4533 12.2447 18.1267 12.45 17.8 12.646C17.4733 12.842 17.1607 13.0287 16.862 13.206C16.7313 13.2807 16.6147 13.2993 16.512 13.262C16.4093 13.2247 16.3253 13.1547 16.26 13.052C16.1947 12.9493 16.1667 12.8373 16.176 12.716C16.1853 12.5947 16.2553 12.4967 16.386 12.422C16.7127 12.226 17.0487 12.0207 17.394 11.806C17.7487 11.5913 18.1033 11.3627 18.458 11.12C18.6353 10.9987 18.7893 10.882 18.92 10.77C19.0507 10.658 19.1533 10.5367 19.228 10.406C19.3027 10.2753 19.3587 10.1307 19.396 9.972C19.4333 9.804 19.452 9.61267 19.452 9.398V8.796H16.666C16.5353 8.796 16.442 8.754 16.386 8.67C16.33 8.57667 16.302 8.46933 16.302 8.348C16.302 8.22667 16.33 8.124 16.386 8.04C16.442 7.94667 16.5353 7.9 16.666 7.9H19.452V6.654C19.452 6.50467 19.5033 6.39733 19.606 6.332C19.7087 6.26667 19.8253 6.234 19.956 6.234ZM25.668 6.164C25.7987 6.164 25.9153 6.19667 26.018 6.262C26.1207 6.32733 26.172 6.43467 26.172 6.584V17.728C26.172 17.8773 26.1207 17.9847 26.018 18.05C25.9153 18.1153 25.7987 18.148 25.668 18.148C25.5373 18.148 25.4207 18.1153 25.318 18.05C25.2153 17.9847 25.164 17.8773 25.164 17.728V6.584C25.164 6.43467 25.2153 6.32733 25.318 6.262C25.4207 6.19667 25.5373 6.164 25.668 6.164ZM19.956 12.926C20.0867 12.926 20.2033 12.9587 20.306 13.024C20.4087 13.0893 20.46 13.1967 20.46 13.346V15.012C21.0013 14.9933 21.552 14.9653 22.112 14.928C22.672 14.8907 23.2553 14.844 23.862 14.788C23.974 14.7693 24.0627 14.7973 24.128 14.872C24.1933 14.9467 24.2353 15.0447 24.254 15.166C24.2633 15.2967 24.24 15.4087 24.184 15.502C24.128 15.586 24.0487 15.6327 23.946 15.642C23.2927 15.698 22.644 15.7447 22 15.782C21.3653 15.8193 20.726 15.852 20.082 15.88C19.438 15.908 18.7847 15.9267 18.122 15.936C17.4593 15.9453 16.778 15.95 16.078 15.95C15.9473 15.95 15.854 15.908 15.798 15.824C15.742 15.74 15.714 15.6373 15.714 15.516C15.714 15.3947 15.742 15.292 15.798 15.208C15.854 15.1147 15.9473 15.068 16.078 15.068C16.6473 15.068 17.2073 15.068 17.758 15.068C18.318 15.068 18.8827 15.0587 19.452 15.04V13.346C19.452 13.1967 19.5033 13.0893 19.606 13.024C19.7087 12.9587 19.8253 12.926 19.956 12.926ZM37.1782 6.766C37.5422 6.766 37.7942 6.836 37.9342 6.976C38.0742 7.10667 38.1442 7.34933 38.1442 7.704V8.614C38.1442 9.29533 38.0929 9.96733 37.9902 10.63C37.8875 11.2927 37.7569 11.862 37.5982 12.338L36.6742 12.142C36.8329 11.6007 36.9495 11.0407 37.0242 10.462C37.0989 9.874 37.1362 9.28133 37.1362 8.684V7.914C37.1362 7.81133 37.1175 7.746 37.0802 7.718C37.0429 7.68067 36.9729 7.662 36.8702 7.662H30.1782C30.0569 7.662 29.9682 7.62 29.9122 7.536C29.8562 7.44267 29.8282 7.33533 29.8282 7.214C29.8282 7.08333 29.8562 6.976 29.9122 6.892C29.9682 6.808 30.0569 6.766 30.1782 6.766H37.1782ZM39.5862 11.918C39.7169 11.918 39.8102 11.96 39.8662 12.044C39.9222 12.128 39.9502 12.2353 39.9502 12.366C39.9502 12.4873 39.9222 12.59 39.8662 12.674C39.8102 12.758 39.7169 12.8 39.5862 12.8H28.6382C28.5075 12.8 28.4142 12.758 28.3582 12.674C28.3022 12.59 28.2742 12.4873 28.2742 12.366C28.2742 12.2353 28.3022 12.128 28.3582 12.044C28.4142 11.96 28.5075 11.918 28.6382 11.918H39.5862ZM30.4582 14.536C30.5889 14.536 30.7055 14.5687 30.8082 14.634C30.9109 14.6993 30.9622 14.8067 30.9622 14.956V17.658C30.9622 17.7607 30.9809 17.826 31.0182 17.854C31.0649 17.8913 31.1349 17.91 31.2282 17.91H38.1722C38.2935 17.91 38.3822 17.952 38.4382 18.036C38.4942 18.1293 38.5222 18.2367 38.5222 18.358C38.5222 18.4793 38.4942 18.582 38.4382 18.666C38.3822 18.75 38.2935 18.792 38.1722 18.792H30.9062C30.5422 18.792 30.2902 18.722 30.1502 18.582C30.0102 18.4513 29.9402 18.2087 29.9402 17.854V14.956C29.9402 14.8067 29.9915 14.6993 30.0942 14.634C30.1969 14.5687 30.3182 14.536 30.4582 14.536ZM50.3544 6.402C50.485 6.402 50.6017 6.43933 50.7044 6.514C50.8164 6.57933 50.8724 6.68667 50.8724 6.836V7.578C50.8724 8.026 50.989 8.39933 51.2224 8.698C51.465 8.99667 51.8384 9.26733 52.3424 9.51C52.837 9.74333 53.2944 9.95333 53.7144 10.14C54.1344 10.3267 54.5544 10.5087 54.9744 10.686C55.105 10.742 55.1797 10.8307 55.1984 10.952C55.217 11.0733 55.2077 11.1853 55.1704 11.288C55.1237 11.4 55.049 11.484 54.9464 11.54C54.8437 11.596 54.7177 11.5913 54.5684 11.526C54.1577 11.358 53.7424 11.1807 53.3224 10.994C52.9117 10.8073 52.4917 10.6113 52.0624 10.406C51.4837 10.126 51.0684 9.874 50.8164 9.65C50.5644 9.41667 50.415 9.21133 50.3684 9.034H50.3544C50.3077 9.22067 50.1584 9.43067 49.9064 9.664C49.6544 9.888 49.239 10.14 48.6604 10.42C48.231 10.6253 47.8064 10.8213 47.3864 11.008C46.9664 11.1947 46.5464 11.3767 46.1264 11.554C45.9864 11.61 45.865 11.61 45.7624 11.554C45.6597 11.4887 45.585 11.4 45.5384 11.288C45.4917 11.1853 45.4777 11.0733 45.4964 10.952C45.5244 10.8307 45.6037 10.742 45.7344 10.686C46.1544 10.5087 46.5744 10.3267 46.9944 10.14C47.4144 9.95333 47.8717 9.74333 48.3664 9.51C48.8704 9.26733 49.239 8.99667 49.4724 8.698C49.715 8.39933 49.8364 8.026 49.8364 7.578V6.836C49.8364 6.68667 49.8877 6.57933 49.9904 6.514C50.1024 6.43933 50.2237 6.402 50.3544 6.402ZM55.8424 12.758C55.9637 12.758 56.0524 12.8 56.1084 12.884C56.1644 12.968 56.1924 13.0707 56.1924 13.192C56.1924 13.3133 56.1644 13.416 56.1084 13.5C56.0524 13.584 55.9637 13.626 55.8424 13.626H50.9984V15.88C50.9984 16.02 50.947 16.1227 50.8444 16.188C50.751 16.244 50.6344 16.272 50.4944 16.272C50.3637 16.272 50.247 16.244 50.1444 16.188C50.0417 16.1227 49.9904 16.02 49.9904 15.88V13.626H44.8664C44.745 13.626 44.6564 13.584 44.6004 13.5C44.5444 13.416 44.5164 13.3133 44.5164 13.192C44.5164 13.0707 44.5444 12.968 44.6004 12.884C44.6564 12.8 44.745 12.758 44.8664 12.758H55.8424ZM46.7004 14.984C46.831 14.984 46.9477 15.0167 47.0504 15.082C47.153 15.1473 47.2044 15.2547 47.2044 15.404V17.686C47.2044 17.8633 47.293 17.952 47.4704 17.952H54.4144C54.5357 17.952 54.6244 17.994 54.6804 18.078C54.7364 18.162 54.7644 18.2647 54.7644 18.386C54.7644 18.5073 54.7364 18.61 54.6804 18.694C54.6244 18.778 54.5357 18.82 54.4144 18.82H47.1484C46.7844 18.82 46.5324 18.75 46.3924 18.61C46.2524 18.4793 46.1824 18.2367 46.1824 17.882V15.404C46.1824 15.2547 46.2337 15.1473 46.3364 15.082C46.439 15.0167 46.5604 14.984 46.7004 14.984Z" fill="#EA2F3E"/>
<path d="M72 0H131C138.18 0 144 5.8203 144 13C144 20.1797 138.18 26 131 26H72V0Z" fill="#EA2F3E"/>
<path d="M82.446 10.028C82.446 9.468 82.5487 8.97333 82.754 8.544C82.9593 8.10533 83.2487 7.73667 83.622 7.438C84.0047 7.13933 84.4667 6.91533 85.008 6.766C85.5587 6.60733 86.1793 6.528 86.87 6.528C87.5513 6.528 88.1673 6.60733 88.718 6.766C89.2687 6.91533 89.7307 7.13933 90.104 7.438C90.4867 7.73667 90.7807 8.10533 90.986 8.544C91.1913 8.97333 91.294 9.468 91.294 10.028C91.294 10.588 91.1913 11.0873 90.986 11.526C90.7807 11.9553 90.4867 12.3193 90.104 12.618C89.7307 12.9167 89.2687 13.1453 88.718 13.304C88.1673 13.4533 87.5513 13.528 86.87 13.528C86.1793 13.528 85.5587 13.4533 85.008 13.304C84.4667 13.1453 84.0047 12.9167 83.622 12.618C83.2487 12.3193 82.9593 11.9553 82.754 11.526C82.5487 11.0873 82.446 10.588 82.446 10.028ZM89.502 10.028C89.502 9.748 89.4507 9.48667 89.348 9.244C89.2547 9.00133 89.1007 8.79133 88.886 8.614C88.6713 8.43667 88.396 8.29667 88.06 8.194C87.7333 8.09133 87.3367 8.04 86.87 8.04C86.4033 8.04 86.002 8.09133 85.666 8.194C85.3393 8.29667 85.0687 8.43667 84.854 8.614C84.6393 8.79133 84.4807 9.00133 84.378 9.244C84.2847 9.48667 84.238 9.748 84.238 10.028C84.238 10.308 84.2847 10.5693 84.378 10.812C84.4807 11.0547 84.6393 11.2647 84.854 11.442C85.0687 11.6193 85.3393 11.7593 85.666 11.862C86.002 11.9647 86.4033 12.016 86.87 12.016C87.3367 12.016 87.7333 11.9647 88.06 11.862C88.396 11.7593 88.6713 11.6193 88.886 11.442C89.1007 11.2647 89.2547 11.0547 89.348 10.812C89.4507 10.5693 89.502 10.308 89.502 10.028ZM81.578 17.126C81.3633 17.126 81.2047 17.0513 81.102 16.902C80.9993 16.7527 80.948 16.5753 80.948 16.37C80.948 16.1647 80.9993 15.9873 81.102 15.838C81.2047 15.6887 81.3633 15.614 81.578 15.614H85.974V12.534H87.766V15.614H92.162C92.3767 15.614 92.5353 15.6887 92.638 15.838C92.7407 15.9873 92.792 16.1647 92.792 16.37C92.792 16.5753 92.7407 16.7527 92.638 16.902C92.5353 17.0513 92.3767 17.126 92.162 17.126H81.578ZM95.1882 15.264C94.7402 15.264 94.4275 15.18 94.2502 15.012C94.0822 14.844 93.9982 14.5407 93.9982 14.102V11.526C93.9982 11.0873 94.0822 10.784 94.2502 10.616C94.4275 10.448 94.7402 10.364 95.1882 10.364H97.0642C97.2789 10.364 97.3862 10.2567 97.3862 10.042V8.824C97.3862 8.60933 97.2789 8.502 97.0642 8.502H94.6142C94.3995 8.502 94.2409 8.42733 94.1382 8.278C94.0355 8.12867 93.9842 7.95133 93.9842 7.746C93.9842 7.54067 94.0355 7.36333 94.1382 7.214C94.2409 7.06467 94.3995 6.99 94.6142 6.99H97.9182C98.3662 6.99 98.6742 7.074 98.8422 7.242C99.0195 7.41 99.1082 7.71333 99.1082 8.152V10.658C99.1082 11.0967 99.0195 11.4 98.8422 11.568C98.6742 11.736 98.3662 11.82 97.9182 11.82H96.0422C95.8275 11.82 95.7202 11.9273 95.7202 12.142V13.43C95.7202 13.6447 95.8275 13.752 96.0422 13.752C96.5462 13.752 97.0689 13.738 97.6102 13.71C98.1609 13.682 98.6602 13.6353 99.1082 13.57C99.3229 13.542 99.4909 13.5933 99.6122 13.724C99.7335 13.8453 99.8035 14.0087 99.8222 14.214C99.8409 14.4287 99.8129 14.6153 99.7382 14.774C99.6635 14.9327 99.5235 15.0307 99.3182 15.068C99.0195 15.1147 98.5295 15.1613 97.8482 15.208C97.1669 15.2453 96.2802 15.264 95.1882 15.264ZM102.048 10.252H103.168V6.738C103.168 6.49533 103.252 6.318 103.42 6.206C103.588 6.094 103.78 6.038 103.994 6.038C104.209 6.038 104.4 6.094 104.568 6.206C104.736 6.318 104.82 6.49533 104.82 6.738V17.574C104.82 17.8167 104.736 17.994 104.568 18.106C104.4 18.218 104.209 18.274 103.994 18.274C103.78 18.274 103.588 18.218 103.42 18.106C103.252 17.994 103.168 17.8167 103.168 17.574V11.764H102.048V16.986C102.048 17.2287 101.964 17.406 101.796 17.518C101.628 17.63 101.437 17.686 101.222 17.686C101.017 17.686 100.83 17.63 100.662 17.518C100.494 17.406 100.41 17.2287 100.41 16.986V6.878C100.41 6.63533 100.494 6.458 100.662 6.346C100.83 6.234 101.017 6.178 101.222 6.178C101.437 6.178 101.628 6.234 101.796 6.346C101.964 6.458 102.048 6.63533 102.048 6.878V10.252ZM108.7 11.33C108.252 11.33 107.94 11.246 107.762 11.078C107.594 10.91 107.51 10.6067 107.51 10.168V7.802C107.51 7.36333 107.594 7.06 107.762 6.892C107.94 6.724 108.252 6.64 108.7 6.64H113.474C113.689 6.64 113.843 6.71467 113.936 6.864C114.039 7.004 114.09 7.17667 114.09 7.382C114.09 7.58733 114.039 7.76467 113.936 7.914C113.843 8.054 113.689 8.124 113.474 8.124H109.61C109.396 8.124 109.288 8.23133 109.288 8.446V9.524C109.288 9.73867 109.396 9.846 109.61 9.846H113.614C113.829 9.846 113.983 9.92067 114.076 10.07C114.179 10.21 114.23 10.3827 114.23 10.588C114.23 10.7933 114.179 10.9707 114.076 11.12C113.983 11.26 113.829 11.33 113.614 11.33H108.7ZM115.63 6.794C115.63 6.53267 115.719 6.34133 115.896 6.22C116.083 6.09867 116.293 6.038 116.526 6.038C116.75 6.038 116.951 6.09867 117.128 6.22C117.315 6.34133 117.408 6.53267 117.408 6.794V15.11C117.408 15.3713 117.315 15.5627 117.128 15.684C116.951 15.8053 116.75 15.866 116.526 15.866C116.293 15.866 116.083 15.8053 115.896 15.684C115.719 15.5627 115.63 15.3713 115.63 15.11V6.794ZM107.216 12.744C107.674 12.744 108.126 12.744 108.574 12.744C109.032 12.744 109.494 12.7393 109.96 12.73V10.602H111.724V12.674C112.63 12.646 113.521 12.59 114.398 12.506C114.613 12.4873 114.776 12.5433 114.888 12.674C115 12.7953 115.066 12.9587 115.084 13.164C115.103 13.36 115.07 13.542 114.986 13.71C114.902 13.8687 114.753 13.9573 114.538 13.976C114.072 14.0227 113.554 14.0647 112.984 14.102C112.415 14.13 111.813 14.1533 111.178 14.172C110.553 14.1907 109.904 14.2093 109.232 14.228C108.56 14.2373 107.888 14.242 107.216 14.242C107.002 14.242 106.843 14.1673 106.74 14.018C106.638 13.8687 106.586 13.6913 106.586 13.486C106.586 13.29 106.638 13.1173 106.74 12.968C106.843 12.8187 107.002 12.744 107.216 12.744ZM117.086 17.434C117.301 17.434 117.46 17.5087 117.562 17.658C117.665 17.8073 117.716 17.9847 117.716 18.19C117.716 18.3953 117.665 18.5727 117.562 18.722C117.46 18.8713 117.301 18.946 117.086 18.946H109.82C109.372 18.946 109.06 18.862 108.882 18.694C108.714 18.526 108.63 18.2227 108.63 17.784V15.642C108.63 15.3807 108.719 15.1893 108.896 15.068C109.083 14.9467 109.298 14.886 109.54 14.886C109.774 14.886 109.979 14.9467 110.156 15.068C110.343 15.1893 110.436 15.3807 110.436 15.642V17.112C110.436 17.3267 110.544 17.434 110.758 17.434H117.086ZM129.507 7.466C129.507 7.89533 129.628 8.24067 129.871 8.502C130.113 8.754 130.463 8.98733 130.921 9.202C131.341 9.38867 131.723 9.55667 132.069 9.706C132.414 9.85533 132.783 10.0093 133.175 10.168C133.268 10.2053 133.343 10.266 133.399 10.35C133.455 10.4247 133.492 10.5087 133.511 10.602C133.529 10.6953 133.529 10.7933 133.511 10.896C133.501 10.9893 133.483 11.078 133.455 11.162C133.38 11.3487 133.254 11.4933 133.077 11.596C132.899 11.6893 132.689 11.6893 132.447 11.596C132.157 11.484 131.835 11.3533 131.481 11.204C131.135 11.0547 130.799 10.9053 130.473 10.756C130.118 10.5973 129.824 10.4527 129.591 10.322C129.367 10.1913 129.185 10.0747 129.045 9.972C128.905 9.86 128.802 9.75733 128.737 9.664C128.671 9.57067 128.629 9.482 128.611 9.398H128.597C128.569 9.50067 128.522 9.59867 128.457 9.692C128.391 9.78533 128.289 9.888 128.149 10C128.009 10.112 127.822 10.2333 127.589 10.364C127.355 10.4947 127.066 10.6393 126.721 10.798C126.394 10.9473 126.053 11.0967 125.699 11.246C125.353 11.3953 125.036 11.526 124.747 11.638C124.504 11.7313 124.294 11.7267 124.117 11.624C123.949 11.5213 123.823 11.3767 123.739 11.19C123.701 11.106 123.673 11.0127 123.655 10.91C123.645 10.8073 123.65 10.7093 123.669 10.616C123.697 10.5133 123.734 10.4247 123.781 10.35C123.837 10.266 123.916 10.2053 124.019 10.168C124.411 10.0093 124.779 9.85533 125.125 9.706C125.47 9.55667 125.853 9.38867 126.273 9.202C126.73 8.98733 127.08 8.754 127.323 8.502C127.565 8.24067 127.687 7.89533 127.687 7.466V7.046C127.687 6.77533 127.775 6.57933 127.953 6.458C128.139 6.33667 128.354 6.276 128.597 6.276C128.839 6.276 129.049 6.33667 129.227 6.458C129.413 6.57933 129.507 6.77533 129.507 7.046V7.466ZM123.305 13.962C123.09 13.962 122.931 13.8873 122.829 13.738C122.726 13.5887 122.675 13.416 122.675 13.22C122.675 13.0147 122.726 12.8373 122.829 12.688C122.931 12.5387 123.09 12.464 123.305 12.464H133.889C134.103 12.464 134.262 12.5387 134.365 12.688C134.467 12.8373 134.519 13.0147 134.519 13.22C134.519 13.416 134.467 13.5887 134.365 13.738C134.262 13.8873 134.103 13.962 133.889 13.962H129.675V15.614C129.675 15.8567 129.586 16.034 129.409 16.146C129.241 16.2487 129.031 16.3 128.779 16.3C128.536 16.3 128.326 16.2487 128.149 16.146C127.981 16.034 127.897 15.8567 127.897 15.614V13.962H123.305ZM132.601 17.462C132.815 17.462 132.974 17.5367 133.077 17.686C133.179 17.8353 133.231 18.0127 133.231 18.218C133.231 18.4233 133.179 18.6007 133.077 18.75C132.974 18.8993 132.815 18.974 132.601 18.974H125.377C124.929 18.974 124.616 18.89 124.439 18.722C124.271 18.554 124.187 18.2507 124.187 17.812V15.642C124.187 15.3807 124.275 15.1893 124.453 15.068C124.639 14.9467 124.854 14.886 125.097 14.886C125.33 14.886 125.535 14.9467 125.713 15.068C125.899 15.1893 125.993 15.3807 125.993 15.642V17.14C125.993 17.3547 126.1 17.462 126.315 17.462H132.601Z" fill="white"/>
</g>
<defs>
<clipPath id="clip0_162_1690">
<rect width="100%" height="100%" rx="13" fill="white"/>
</clipPath>
</defs>
</svg>
