<svg width="144" height="26" viewBox="0 0 144 26" fill="none" xmlns="http://www.w3.org/2000/svg">
<g clip-path="url(#clip0_162_1682)">
<path d="M0 13C0 5.8203 5.8203 0 13 0H72V26H13C5.8203 26 0 20.1797 0 13Z" fill="#EA2F3E"/>
<path d="M16.848 9.23C16.6333 9.23 16.4747 9.15533 16.372 9.006C16.2693 8.85667 16.218 8.67933 16.218 8.474C16.218 8.26867 16.2693 8.09133 16.372 7.942C16.4747 7.79267 16.6333 7.718 16.848 7.718H19.018V6.864C19.018 6.60267 19.1067 6.41133 19.284 6.29C19.4707 6.16867 19.6807 6.108 19.914 6.108C20.1473 6.108 20.3527 6.16867 20.53 6.29C20.7167 6.41133 20.81 6.60267 20.81 6.864V7.718H22.868C23.0827 7.718 23.2413 7.79267 23.344 7.942C23.4467 8.09133 23.498 8.26867 23.498 8.474C23.498 8.67933 23.4467 8.85667 23.344 9.006C23.2413 9.15533 23.0827 9.23 22.868 9.23H20.81V9.454C20.81 9.75267 20.866 10.0047 20.978 10.21C21.09 10.4153 21.2907 10.6113 21.58 10.798C21.916 11.022 22.2147 11.2133 22.476 11.372C22.7373 11.5307 22.966 11.666 23.162 11.778C23.3673 11.8993 23.4793 12.0627 23.498 12.268C23.526 12.464 23.4887 12.6507 23.386 12.828C23.2927 12.9867 23.148 13.108 22.952 13.192C22.7653 13.276 22.56 13.2527 22.336 13.122C21.972 12.9167 21.5287 12.646 21.006 12.31C20.8193 12.1887 20.6607 12.086 20.53 12.002C20.4087 11.9087 20.3107 11.8247 20.236 11.75C20.1613 11.6753 20.1007 11.61 20.054 11.554C20.0167 11.4887 19.9887 11.4233 19.97 11.358H19.956C19.9093 11.5073 19.8067 11.6613 19.648 11.82C19.4893 11.9693 19.2187 12.1653 18.836 12.408C18.556 12.5947 18.2947 12.7627 18.052 12.912C17.8093 13.052 17.5387 13.206 17.24 13.374C17.128 13.4393 17.016 13.472 16.904 13.472C16.8013 13.472 16.7033 13.4533 16.61 13.416C16.526 13.3787 16.4467 13.3273 16.372 13.262C16.3067 13.1873 16.2507 13.108 16.204 13.024C16.1013 12.8467 16.0593 12.66 16.078 12.464C16.0967 12.2587 16.218 12.0907 16.442 11.96C16.7407 11.792 17.03 11.624 17.31 11.456C17.5993 11.2787 17.912 11.078 18.248 10.854C18.5373 10.6673 18.738 10.4713 18.85 10.266C18.962 10.0607 19.018 9.80867 19.018 9.51V9.23H16.848ZM24.646 6.794C24.646 6.53267 24.7347 6.34133 24.912 6.22C25.0987 6.09867 25.3087 6.038 25.542 6.038C25.766 6.038 25.9667 6.09867 26.144 6.22C26.3307 6.34133 26.424 6.53267 26.424 6.794V17.518C26.424 17.7793 26.3307 17.9707 26.144 18.092C25.9667 18.2133 25.766 18.274 25.542 18.274C25.3087 18.274 25.0987 18.2133 24.912 18.092C24.7347 17.9707 24.646 17.7793 24.646 17.518V6.794ZM23.554 15.908C23.0873 15.9547 22.5693 15.9967 22 16.034C21.4307 16.062 20.8287 16.0853 20.194 16.104C19.5687 16.1227 18.92 16.1413 18.248 16.16C17.576 16.1693 16.904 16.174 16.232 16.174C16.0173 16.174 15.8587 16.0993 15.756 15.95C15.6533 15.8007 15.602 15.6233 15.602 15.418C15.602 15.2127 15.6533 15.0353 15.756 14.886C15.8587 14.7367 16.0173 14.662 16.232 14.662C16.6987 14.662 17.1607 14.662 17.618 14.662C18.0847 14.662 18.556 14.6573 19.032 14.648V13.682C19.032 13.4207 19.1207 13.2293 19.298 13.108C19.4847 12.9867 19.69 12.926 19.914 12.926C20.1473 12.926 20.3527 12.9867 20.53 13.108C20.7167 13.2293 20.81 13.4207 20.81 13.682V14.592C21.6873 14.564 22.56 14.508 23.428 14.424C23.6427 14.4053 23.8013 14.4613 23.904 14.592C24.016 14.7227 24.0813 14.8907 24.1 15.096C24.1187 15.292 24.086 15.474 24.002 15.642C23.918 15.8007 23.7687 15.8893 23.554 15.908ZM30.2202 8.152C30.0055 8.152 29.8469 8.07733 29.7442 7.928C29.6415 7.77867 29.5902 7.59667 29.5902 7.382C29.5902 7.16733 29.6415 6.98533 29.7442 6.836C29.8469 6.68667 30.0055 6.612 30.2202 6.612H37.1922C37.6402 6.612 37.9482 6.696 38.1162 6.864C38.2935 7.032 38.3822 7.33533 38.3822 7.774V8.866C38.3822 9.18333 38.3635 9.51 38.3262 9.846C38.2982 10.182 38.2562 10.5087 38.2002 10.826C38.1442 11.134 38.0789 11.428 38.0042 11.708C37.9389 11.9787 37.8642 12.212 37.7802 12.408L36.1982 12.072C36.3382 11.5773 36.4409 11.064 36.5062 10.532C36.5715 9.99067 36.6042 9.47267 36.6042 8.978V8.474C36.6042 8.25933 36.4969 8.152 36.2822 8.152H30.2202ZM28.8202 13.15C28.6055 13.15 28.4469 13.0753 28.3442 12.926C28.2415 12.7767 28.1902 12.5993 28.1902 12.394C28.1902 12.1793 28.2415 11.9973 28.3442 11.848C28.4469 11.6987 28.6055 11.624 28.8202 11.624H39.4042C39.6189 11.624 39.7775 11.6987 39.8802 11.848C39.9829 11.9973 40.0342 12.1793 40.0342 12.394C40.0342 12.5993 39.9829 12.7767 39.8802 12.926C39.7775 13.0753 39.6189 13.15 39.4042 13.15H28.8202ZM31.5082 17.098C31.5082 17.3127 31.6155 17.42 31.8302 17.42H38.1162C38.3309 17.42 38.4895 17.4947 38.5922 17.644C38.6949 17.7933 38.7462 17.9753 38.7462 18.19C38.7462 18.3953 38.6949 18.5727 38.5922 18.722C38.4895 18.8713 38.3309 18.946 38.1162 18.946H30.8922C30.4442 18.946 30.1315 18.862 29.9542 18.694C29.7862 18.526 29.7022 18.2227 29.7022 17.784V15.194C29.7022 14.9327 29.7909 14.7413 29.9682 14.62C30.1549 14.4987 30.3695 14.438 30.6122 14.438C30.8455 14.438 31.0509 14.4987 31.2282 14.62C31.4149 14.7413 31.5082 14.9327 31.5082 15.194V17.098ZM51.2644 7.466C51.2644 7.89533 51.3857 8.24067 51.6284 8.502C51.871 8.754 52.221 8.98733 52.6784 9.202C53.0984 9.38867 53.481 9.55667 53.8264 9.706C54.1717 9.85533 54.5404 10.0093 54.9324 10.168C55.0257 10.2053 55.1004 10.266 55.1564 10.35C55.2124 10.4247 55.2497 10.5087 55.2684 10.602C55.287 10.6953 55.287 10.7933 55.2684 10.896C55.259 10.9893 55.2404 11.078 55.2124 11.162C55.1377 11.3487 55.0117 11.4933 54.8344 11.596C54.657 11.6893 54.447 11.6893 54.2044 11.596C53.915 11.484 53.593 11.3533 53.2384 11.204C52.893 11.0547 52.557 10.9053 52.2304 10.756C51.8757 10.5973 51.5817 10.4527 51.3484 10.322C51.1244 10.1913 50.9424 10.0747 50.8024 9.972C50.6624 9.86 50.5597 9.75733 50.4944 9.664C50.429 9.57067 50.387 9.482 50.3684 9.398H50.3544C50.3264 9.50067 50.2797 9.59867 50.2144 9.692C50.149 9.78533 50.0464 9.888 49.9064 10C49.7664 10.112 49.5797 10.2333 49.3464 10.364C49.113 10.4947 48.8237 10.6393 48.4784 10.798C48.1517 10.9473 47.811 11.0967 47.4564 11.246C47.111 11.3953 46.7937 11.526 46.5044 11.638C46.2617 11.7313 46.0517 11.7267 45.8744 11.624C45.7064 11.5213 45.5804 11.3767 45.4964 11.19C45.459 11.106 45.431 11.0127 45.4124 10.91C45.403 10.8073 45.4077 10.7093 45.4264 10.616C45.4544 10.5133 45.4917 10.4247 45.5384 10.35C45.5944 10.266 45.6737 10.2053 45.7764 10.168C46.1684 10.0093 46.537 9.85533 46.8824 9.706C47.2277 9.55667 47.6104 9.38867 48.0304 9.202C48.4877 8.98733 48.8377 8.754 49.0804 8.502C49.323 8.24067 49.4444 7.89533 49.4444 7.466V7.046C49.4444 6.77533 49.533 6.57933 49.7104 6.458C49.897 6.33667 50.1117 6.276 50.3544 6.276C50.597 6.276 50.807 6.33667 50.9844 6.458C51.171 6.57933 51.2644 6.77533 51.2644 7.046V7.466ZM45.0624 13.962C44.8477 13.962 44.689 13.8873 44.5864 13.738C44.4837 13.5887 44.4324 13.416 44.4324 13.22C44.4324 13.0147 44.4837 12.8373 44.5864 12.688C44.689 12.5387 44.8477 12.464 45.0624 12.464H55.6464C55.861 12.464 56.0197 12.5387 56.1224 12.688C56.225 12.8373 56.2764 13.0147 56.2764 13.22C56.2764 13.416 56.225 13.5887 56.1224 13.738C56.0197 13.8873 55.861 13.962 55.6464 13.962H51.4324V15.614C51.4324 15.8567 51.3437 16.034 51.1664 16.146C50.9984 16.2487 50.7884 16.3 50.5364 16.3C50.2937 16.3 50.0837 16.2487 49.9064 16.146C49.7384 16.034 49.6544 15.8567 49.6544 15.614V13.962H45.0624ZM54.3584 17.462C54.573 17.462 54.7317 17.5367 54.8344 17.686C54.937 17.8353 54.9884 18.0127 54.9884 18.218C54.9884 18.4233 54.937 18.6007 54.8344 18.75C54.7317 18.8993 54.573 18.974 54.3584 18.974H47.1344C46.6864 18.974 46.3737 18.89 46.1964 18.722C46.0284 18.554 45.9444 18.2507 45.9444 17.812V15.642C45.9444 15.3807 46.033 15.1893 46.2104 15.068C46.397 14.9467 46.6117 14.886 46.8544 14.886C47.0877 14.886 47.293 14.9467 47.4704 15.068C47.657 15.1893 47.7504 15.3807 47.7504 15.642V17.14C47.7504 17.3547 47.8577 17.462 48.0724 17.462H54.3584Z" fill="white"/>
<path d="M72.5 0.5H131C137.904 0.5 143.5 6.09644 143.5 13C143.5 19.9036 137.904 25.5 131 25.5H72.5V0.5Z" stroke="#EA2F3E"/>
<path d="M86.87 6.682C88.214 6.682 89.2453 6.98067 89.964 7.578C90.692 8.166 91.056 8.97333 91.056 10C91.056 11.0267 90.692 11.8387 89.964 12.436C89.2453 13.024 88.214 13.318 86.87 13.318C85.526 13.318 84.49 13.024 83.762 12.436C83.0433 11.8387 82.684 11.0267 82.684 10C82.684 8.97333 83.0433 8.166 83.762 7.578C84.49 6.98067 85.526 6.682 86.87 6.682ZM86.87 7.55C86.338 7.55 85.8713 7.61533 85.47 7.746C85.078 7.86733 84.7513 8.03533 84.49 8.25C84.2287 8.46467 84.0327 8.726 83.902 9.034C83.7713 9.33267 83.706 9.65467 83.706 10C83.706 10.3547 83.7713 10.6813 83.902 10.98C84.0327 11.2787 84.2287 11.5353 84.49 11.75C84.7513 11.9647 85.078 12.1373 85.47 12.268C85.8713 12.3893 86.338 12.45 86.87 12.45C87.402 12.45 87.864 12.3893 88.256 12.268C88.6573 12.1373 88.9887 11.9647 89.25 11.75C89.5113 11.5353 89.7073 11.2787 89.838 10.98C89.9687 10.6813 90.034 10.3547 90.034 10C90.034 9.65467 89.9687 9.33267 89.838 9.034C89.7073 8.726 89.5113 8.46467 89.25 8.25C88.9887 8.03533 88.6573 7.86733 88.256 7.746C87.864 7.61533 87.402 7.55 86.87 7.55ZM87.388 15.964H92.344C92.4747 15.964 92.568 16.006 92.624 16.09C92.68 16.174 92.708 16.2813 92.708 16.412C92.708 16.5333 92.68 16.636 92.624 16.72C92.568 16.804 92.4747 16.846 92.344 16.846H81.396C81.2653 16.846 81.172 16.804 81.116 16.72C81.06 16.636 81.032 16.5333 81.032 16.412C81.032 16.2813 81.06 16.174 81.116 16.09C81.172 16.006 81.2653 15.964 81.396 15.964H86.366V12.534H87.388V15.964ZM97.9882 7.144C98.3522 7.144 98.6042 7.214 98.7442 7.354C98.8842 7.48467 98.9542 7.72733 98.9542 8.082V10.574C98.9542 10.9287 98.8842 11.176 98.7442 11.316C98.6042 11.4467 98.3522 11.512 97.9882 11.512H95.4822C95.3049 11.512 95.2162 11.596 95.2162 11.764V13.976C95.2162 14.144 95.3049 14.228 95.4822 14.228C95.8275 14.228 96.1822 14.2233 96.5462 14.214C96.9102 14.1953 97.2649 14.1767 97.6102 14.158C97.9649 14.1393 98.3009 14.116 98.6182 14.088C98.9449 14.0507 99.2435 14.0133 99.5142 13.976C99.6169 13.9573 99.7055 13.9853 99.7802 14.06C99.8549 14.1253 99.9015 14.2187 99.9202 14.34C99.9389 14.4707 99.9202 14.5873 99.8642 14.69C99.8175 14.7833 99.7382 14.8393 99.6262 14.858C99.2062 14.9327 98.6089 14.9933 97.8342 15.04C97.0689 15.0867 96.1869 15.11 95.1882 15.11C94.8242 15.11 94.5722 15.0447 94.4322 14.914C94.2922 14.774 94.2222 14.5267 94.2222 14.172V11.596C94.2222 11.2413 94.2922 10.9987 94.4322 10.868C94.5722 10.728 94.8242 10.658 95.1882 10.658H97.6942C97.8715 10.658 97.9602 10.5693 97.9602 10.392V8.278C97.9602 8.11 97.8715 8.026 97.6942 8.026H94.5722C94.4509 8.026 94.3622 7.984 94.3062 7.9C94.2502 7.816 94.2222 7.70867 94.2222 7.578C94.2222 7.45667 94.2502 7.354 94.3062 7.27C94.3622 7.186 94.4509 7.144 94.5722 7.144H97.9882ZM104.078 6.164C104.209 6.164 104.321 6.19667 104.414 6.262C104.517 6.32733 104.568 6.43 104.568 6.57V17.742C104.568 17.882 104.517 17.9847 104.414 18.05C104.321 18.1153 104.209 18.148 104.078 18.148C103.957 18.148 103.845 18.1153 103.742 18.05C103.649 17.9847 103.602 17.882 103.602 17.742V11.442H101.74V17.154C101.74 17.294 101.689 17.3967 101.586 17.462C101.493 17.5273 101.381 17.56 101.25 17.56C101.129 17.56 101.017 17.5273 100.914 17.462C100.821 17.3967 100.774 17.294 100.774 17.154V6.71C100.774 6.57 100.821 6.46733 100.914 6.402C101.017 6.33667 101.129 6.304 101.25 6.304C101.381 6.304 101.493 6.33667 101.586 6.402C101.689 6.46733 101.74 6.57 101.74 6.71V10.56H103.602V6.57C103.602 6.43 103.649 6.32733 103.742 6.262C103.845 6.19667 103.957 6.164 104.078 6.164ZM113.6 6.822C113.722 6.822 113.81 6.864 113.866 6.948C113.922 7.032 113.95 7.13467 113.95 7.256C113.95 7.37733 113.922 7.48 113.866 7.564C113.81 7.648 113.722 7.69 113.6 7.69H109.008C108.831 7.69 108.742 7.77867 108.742 7.956V10.014C108.742 10.1913 108.831 10.28 109.008 10.28H113.74C113.862 10.28 113.95 10.322 114.006 10.406C114.062 10.49 114.09 10.5927 114.09 10.714C114.09 10.8353 114.062 10.938 114.006 11.022C113.95 11.106 113.862 11.148 113.74 11.148H108.7C108.336 11.148 108.084 11.0827 107.944 10.952C107.804 10.812 107.734 10.5647 107.734 10.21V7.76C107.734 7.40533 107.804 7.16267 107.944 7.032C108.084 6.892 108.336 6.822 108.7 6.822H113.6ZM116.652 6.164C116.783 6.164 116.9 6.19667 117.002 6.262C117.105 6.32733 117.156 6.43467 117.156 6.584V15.404C117.156 15.5533 117.105 15.6607 117.002 15.726C116.9 15.7913 116.783 15.824 116.652 15.824C116.522 15.824 116.405 15.7913 116.302 15.726C116.2 15.6607 116.148 15.5533 116.148 15.404V6.584C116.148 6.43467 116.2 6.32733 116.302 6.262C116.405 6.19667 116.522 6.164 116.652 6.164ZM114.846 12.828C114.958 12.8093 115.047 12.8373 115.112 12.912C115.178 12.9773 115.22 13.0753 115.238 13.206C115.248 13.3273 115.224 13.4347 115.168 13.528C115.112 13.612 115.033 13.6633 114.93 13.682C114.277 13.738 113.628 13.7847 112.984 13.822C112.35 13.8593 111.71 13.892 111.066 13.92C110.422 13.9387 109.769 13.9527 109.106 13.962C108.444 13.9713 107.762 13.976 107.062 13.976C106.932 13.976 106.838 13.934 106.782 13.85C106.726 13.766 106.698 13.6633 106.698 13.542C106.698 13.4207 106.726 13.318 106.782 13.234C106.838 13.15 106.932 13.108 107.062 13.108C107.622 13.108 108.173 13.108 108.714 13.108C109.256 13.108 109.806 13.0987 110.366 13.08V10.84H111.374V13.038C111.934 13.0193 112.499 12.996 113.068 12.968C113.638 12.9307 114.23 12.884 114.846 12.828ZM109.386 14.984C109.517 14.984 109.634 15.0167 109.736 15.082C109.848 15.1473 109.904 15.2547 109.904 15.404V17.658C109.904 17.8353 109.993 17.924 110.17 17.924H117.17C117.292 17.924 117.38 17.966 117.436 18.05C117.492 18.134 117.52 18.2367 117.52 18.358C117.52 18.4793 117.492 18.582 117.436 18.666C117.38 18.75 117.292 18.792 117.17 18.792H109.834C109.47 18.792 109.218 18.722 109.078 18.582C108.938 18.4513 108.868 18.2087 108.868 17.854V15.404C108.868 15.2547 108.92 15.1473 109.022 15.082C109.134 15.0167 109.256 14.984 109.386 14.984ZM128.597 6.402C128.727 6.402 128.844 6.43933 128.947 6.514C129.059 6.57933 129.115 6.68667 129.115 6.836V7.578C129.115 8.026 129.231 8.39933 129.465 8.698C129.707 8.99667 130.081 9.26733 130.585 9.51C131.079 9.74333 131.537 9.95333 131.957 10.14C132.377 10.3267 132.797 10.5087 133.217 10.686C133.347 10.742 133.422 10.8307 133.441 10.952C133.459 11.0733 133.45 11.1853 133.413 11.288C133.366 11.4 133.291 11.484 133.189 11.54C133.086 11.596 132.96 11.5913 132.811 11.526C132.4 11.358 131.985 11.1807 131.565 10.994C131.154 10.8073 130.734 10.6113 130.305 10.406C129.726 10.126 129.311 9.874 129.059 9.65C128.807 9.41667 128.657 9.21133 128.611 9.034H128.597C128.55 9.22067 128.401 9.43067 128.149 9.664C127.897 9.888 127.481 10.14 126.903 10.42C126.473 10.6253 126.049 10.8213 125.629 11.008C125.209 11.1947 124.789 11.3767 124.369 11.554C124.229 11.61 124.107 11.61 124.005 11.554C123.902 11.4887 123.827 11.4 123.781 11.288C123.734 11.1853 123.72 11.0733 123.739 10.952C123.767 10.8307 123.846 10.742 123.977 10.686C124.397 10.5087 124.817 10.3267 125.237 10.14C125.657 9.95333 126.114 9.74333 126.609 9.51C127.113 9.26733 127.481 8.99667 127.715 8.698C127.957 8.39933 128.079 8.026 128.079 7.578V6.836C128.079 6.68667 128.13 6.57933 128.233 6.514C128.345 6.43933 128.466 6.402 128.597 6.402ZM134.085 12.758C134.206 12.758 134.295 12.8 134.351 12.884C134.407 12.968 134.435 13.0707 134.435 13.192C134.435 13.3133 134.407 13.416 134.351 13.5C134.295 13.584 134.206 13.626 134.085 13.626H129.241V15.88C129.241 16.02 129.189 16.1227 129.087 16.188C128.993 16.244 128.877 16.272 128.737 16.272C128.606 16.272 128.489 16.244 128.387 16.188C128.284 16.1227 128.233 16.02 128.233 15.88V13.626H123.109C122.987 13.626 122.899 13.584 122.843 13.5C122.787 13.416 122.759 13.3133 122.759 13.192C122.759 13.0707 122.787 12.968 122.843 12.884C122.899 12.8 122.987 12.758 123.109 12.758H134.085ZM124.943 14.984C125.073 14.984 125.19 15.0167 125.293 15.082C125.395 15.1473 125.447 15.2547 125.447 15.404V17.686C125.447 17.8633 125.535 17.952 125.713 17.952H132.657C132.778 17.952 132.867 17.994 132.923 18.078C132.979 18.162 133.007 18.2647 133.007 18.386C133.007 18.5073 132.979 18.61 132.923 18.694C132.867 18.778 132.778 18.82 132.657 18.82H125.391C125.027 18.82 124.775 18.75 124.635 18.61C124.495 18.4793 124.425 18.2367 124.425 17.882V15.404C124.425 15.2547 124.476 15.1473 124.579 15.082C124.681 15.0167 124.803 14.984 124.943 14.984Z" fill="#EA2F3E"/>
</g>
<defs>
<clipPath id="clip0_162_1682">
<rect width="144" height="26" rx="13" fill="white"/>
</clipPath>
</defs>
</svg>
