<svg width="33" height="39" viewBox="0 0 33 39" fill="none" xmlns="http://www.w3.org/2000/svg">
<mask id="mask0_283_7726" style="mask-type:luminance" maskUnits="userSpaceOnUse" x="0" y="3" width="33" height="33">
<path d="M16.5 34C18.4045 34.0023 20.2907 33.6283 22.0502 32.8995C23.8098 32.1707 25.4079 31.1013 26.7529 29.7529C28.1013 28.4079 29.1707 26.8098 29.8995 25.0502C30.6283 23.2907 31.0023 21.4045 31 19.5C31.0023 17.5955 30.6283 15.7093 29.8995 13.9498C29.1707 12.1902 28.1013 10.5921 26.7529 9.24706C25.4079 7.89868 23.8098 6.82934 22.0502 6.1005C20.2907 5.37165 18.4045 4.99766 16.5 5.00001C14.5955 4.99766 12.7093 5.37165 10.9498 6.1005C9.19023 6.82934 7.59206 7.89868 6.24706 9.24706C4.89868 10.5921 3.82934 12.1902 3.1005 13.9498C2.37165 15.7093 1.99766 17.5955 2.00001 19.5C1.99766 21.4045 2.37165 23.2907 3.1005 25.0502C3.82934 26.8098 4.89868 28.4079 6.24706 29.7529C7.59206 31.1013 9.19023 32.1707 10.9498 32.8995C12.7093 33.6283 14.5955 34.0023 16.5 34Z" fill="white" stroke="white" stroke-width="3.80597" stroke-linejoin="round"/>
<path d="M10.7009 19.4999L15.0509 23.8499L23.7509 15.1499" stroke="black" stroke-width="3.80597" stroke-linecap="round" stroke-linejoin="round"/>
</mask>
<g mask="url(#mask0_283_7726)">
<path d="M-0.899414 2.09985H33.9006V36.8998H-0.899414V2.09985Z" fill="#37C559"/>
</g>
</svg>
