<svg width="51" height="55" viewBox="0 0 51 55" fill="none" xmlns="http://www.w3.org/2000/svg">
<path d="M31.4852 5.59595C32.6306 5.59589 33.7328 6.01708 34.5662 6.77335C35.3996 7.52962 35.9012 8.56379 35.9684 9.66427L35.9759 9.91782V12.7991C37.1213 12.799 38.2235 13.2202 39.0569 13.9765C39.8903 14.7327 40.3919 15.7669 40.4591 16.8674L40.4666 17.121V22.8835C40.4666 23.9858 40.029 25.0466 39.2432 25.8486C38.4574 26.6507 37.3828 27.1335 36.2393 27.1981L35.9759 27.2053V28.597C35.9759 30.0664 34.2649 30.8933 33.0509 30.0851L32.9072 29.9814L29.4464 27.2053H24.0007C22.8975 27.2054 21.8328 26.8146 21.0099 26.1076L20.8003 25.9145L18.0131 27.9256C16.829 28.7799 15.16 28.0337 15.0282 26.6593L15.0193 26.485V24.3241C13.8738 24.3241 12.7716 23.903 11.9383 23.1467C11.1049 22.3904 10.6032 21.3562 10.536 20.2558L10.5286 20.0022V9.91782C10.5285 8.81544 10.9661 7.7547 11.752 6.95264C12.5378 6.15058 13.6123 5.66782 14.7558 5.60315L15.0193 5.59595H31.4852ZM35.9759 15.6803H24.0007C23.6037 15.6803 23.2229 15.8321 22.9422 16.1023C22.6615 16.3724 22.5038 16.7389 22.5038 17.121V22.8835C22.5038 23.2655 22.6615 23.632 22.9422 23.9021C23.2229 24.1723 23.6037 24.3241 24.0007 24.3241H29.4464C30.1466 24.3244 30.8246 24.5609 31.3624 24.9925L32.991 26.2977C33.0397 25.7592 33.2964 25.2577 33.7104 24.8923C34.1244 24.527 34.6657 24.3242 35.2274 24.3241H35.9759C36.3729 24.3241 36.7536 24.1723 37.0343 23.9021C37.3151 23.632 37.4728 23.2655 37.4728 22.8835V17.121C37.4728 16.7389 37.3151 16.3724 37.0343 16.1023C36.7536 15.8321 36.3729 15.6803 35.9759 15.6803ZM31.4852 8.4772H15.0193C14.6223 8.4772 14.2415 8.62898 13.9608 8.89915C13.6801 9.16932 13.5224 9.53575 13.5224 9.91782V20.0022C13.5224 20.3843 13.6801 20.7507 13.9608 21.0209C14.2415 21.2911 14.6223 21.4428 15.0193 21.4428H15.7677C16.3632 21.4428 16.9343 21.6705 17.3554 22.0758C17.7765 22.481 18.0131 23.0307 18.0131 23.6038V24.3241L19.5249 23.2335C19.515 23.1171 19.51 23.0003 19.51 22.8835V17.121C19.51 15.9747 19.9831 14.8754 20.8253 14.0649C21.6674 13.2544 22.8097 12.7991 24.0007 12.7991H32.9821V9.91782C32.9821 9.53575 32.8244 9.16932 32.5436 8.89915C32.2629 8.62898 31.8822 8.4772 31.4852 8.4772Z" fill="#AAABAC"/>
<path d="M8.77781 43.5373C9.08981 43.5373 9.30581 43.5973 9.42581 43.7173C9.54581 43.8293 9.60581 44.0373 9.60581 44.3413V45.8893C9.60581 46.4253 9.55381 46.8813 9.44981 47.2573C9.35381 47.6253 9.15381 47.9773 8.84981 48.3133C8.54581 48.6493 8.11381 49.0053 7.55381 49.3813C6.99381 49.7493 6.25381 50.2013 5.33381 50.7373C5.23781 50.7933 5.14181 50.8053 5.04581 50.7733C4.94981 50.7413 4.86981 50.6813 4.80581 50.5933C4.74181 50.5053 4.71381 50.4053 4.72181 50.2933C4.73781 50.1733 4.79381 50.0853 4.88981 50.0293C5.58581 49.6293 6.16181 49.2893 6.61781 49.0093C7.08181 48.7213 7.45781 48.4613 7.74581 48.2293C8.03381 47.9973 8.24581 47.7733 8.38181 47.5573C8.52581 47.3413 8.62181 47.1013 8.66981 46.8373L4.90181 47.0533C4.78981 47.0693 4.70581 47.0413 4.64981 46.9693C4.60181 46.8893 4.57381 46.7973 4.56581 46.6933C4.55781 46.5893 4.57381 46.4973 4.61381 46.4173C4.66181 46.3373 4.74181 46.2933 4.85381 46.2853L8.74181 46.1053V45.9493V44.5213C8.74181 44.4333 8.72581 44.3773 8.69381 44.3533C8.66181 44.3213 8.60181 44.3053 8.51381 44.3053H5.16581C5.05381 44.3053 4.97381 44.2693 4.92581 44.1973C4.87781 44.1173 4.85381 44.0253 4.85381 43.9213C4.85381 43.8173 4.87781 43.7293 4.92581 43.6573C4.97381 43.5773 5.05381 43.5373 5.16581 43.5373H8.77781ZM12.6538 42.7093C12.7658 42.7093 12.8658 42.7373 12.9538 42.7933C13.0418 42.8493 13.0858 42.9413 13.0858 43.0693V52.6213C13.0858 52.7493 13.0418 52.8413 12.9538 52.8973C12.8658 52.9533 12.7658 52.9813 12.6538 52.9813C12.5418 52.9813 12.4418 52.9533 12.3538 52.8973C12.2658 52.8413 12.2218 52.7493 12.2218 52.6213V47.2333H9.29381V46.4773H12.2218V43.0693C12.2218 42.9413 12.2658 42.8493 12.3538 42.7933C12.4418 42.7373 12.5418 42.7093 12.6538 42.7093ZM22.7717 43.2253C23.0837 43.2253 23.2997 43.2853 23.4197 43.4053C23.5397 43.5173 23.5997 43.7253 23.5997 44.0293V46.8013C23.5997 47.1053 23.5397 47.3173 23.4197 47.4373C23.2997 47.5493 23.0837 47.6053 22.7717 47.6053H17.2997C16.9877 47.6053 16.7717 47.5493 16.6517 47.4373C16.5317 47.3173 16.4717 47.1053 16.4717 46.8013V44.0293C16.4717 43.7253 16.5317 43.5173 16.6517 43.4053C16.7717 43.2853 16.9877 43.2253 17.2997 43.2253H22.7717ZM17.5757 43.9813C17.4237 43.9813 17.3477 44.0533 17.3477 44.1973V46.6333C17.3477 46.7773 17.4237 46.8493 17.5757 46.8493H22.4957C22.6477 46.8493 22.7237 46.7773 22.7237 46.6333V44.1973C22.7237 44.0533 22.6477 43.9813 22.4957 43.9813H17.5757ZM24.7397 49.0933C24.8437 49.0933 24.9197 49.1293 24.9677 49.2013C25.0157 49.2733 25.0397 49.3613 25.0397 49.4653C25.0397 49.5693 25.0157 49.6573 24.9677 49.7293C24.9197 49.8013 24.8437 49.8373 24.7397 49.8373H22.2077V53.4013C22.2077 53.5293 22.1637 53.6213 22.0757 53.6773C21.9957 53.7333 21.8997 53.7613 21.7877 53.7613C21.6757 53.7613 21.5757 53.7333 21.4877 53.6773C21.4077 53.6213 21.3677 53.5293 21.3677 53.4013V49.8373H18.7037V53.4013C18.7037 53.5293 18.6597 53.6213 18.5717 53.6773C18.4917 53.7333 18.3957 53.7613 18.2837 53.7613C18.1717 53.7613 18.0717 53.7333 17.9837 53.6773C17.9037 53.6213 17.8637 53.5293 17.8637 53.4013V49.8373H15.3317C15.2277 49.8373 15.1517 49.8013 15.1037 49.7293C15.0557 49.6573 15.0317 49.5693 15.0317 49.4653C15.0317 49.3613 15.0557 49.2733 15.1037 49.2013C15.1517 49.1293 15.2277 49.0933 15.3317 49.0933H24.7397ZM27.1656 43.4293C27.2856 43.4293 27.3896 43.4573 27.4776 43.5133C27.5656 43.5693 27.6096 43.6613 27.6096 43.7893V49.1893C27.6096 49.3413 27.6856 49.4173 27.8376 49.4173C28.7576 49.4173 29.5936 49.3933 30.3456 49.3453C31.0976 49.2973 31.8296 49.2253 32.5416 49.1293C32.6376 49.1133 32.7176 49.1373 32.7816 49.2013C32.8456 49.2573 32.8856 49.3413 32.9016 49.4533C32.9176 49.5653 32.9016 49.6653 32.8536 49.7533C32.8136 49.8333 32.7456 49.8813 32.6496 49.8973C32.3376 49.9373 32.0056 49.9773 31.6536 50.0173C31.3096 50.0493 30.9296 50.0773 30.5136 50.1013C30.1056 50.1253 29.6576 50.1453 29.1696 50.1613C28.6816 50.1693 28.1456 50.1733 27.5616 50.1733C27.2496 50.1733 27.0336 50.1173 26.9136 50.0053C26.7936 49.8853 26.7336 49.6733 26.7336 49.3693V43.7893C26.7336 43.6613 26.7776 43.5693 26.8656 43.5133C26.9536 43.4573 27.0536 43.4293 27.1656 43.4293ZM34.4136 42.7093C34.5256 42.7093 34.6256 42.7373 34.7136 42.7933C34.8096 42.8493 34.8576 42.9413 34.8576 43.0693V52.6213C34.8576 52.7493 34.8096 52.8413 34.7136 52.8973C34.6256 52.9533 34.5256 52.9813 34.4136 52.9813C34.3016 52.9813 34.2016 52.9533 34.1136 52.8973C34.0256 52.8413 33.9816 52.7493 33.9816 52.6213V43.0693C33.9816 42.9413 34.0256 42.8493 34.1136 42.7933C34.2016 42.7373 34.3016 42.7093 34.4136 42.7093ZM42.4554 43.4653C42.5674 43.4653 42.6474 43.5013 42.6954 43.5733C42.7434 43.6453 42.7674 43.7333 42.7674 43.8373C42.7674 43.9493 42.7434 44.0413 42.6954 44.1133C42.6474 44.1853 42.5674 44.2213 42.4554 44.2213H38.7114C38.5594 44.2213 38.4834 44.2933 38.4834 44.4373V46.4773H42.3354C42.4474 46.4773 42.5274 46.5133 42.5754 46.5853C42.6234 46.6573 42.6474 46.7453 42.6474 46.8493C42.6474 46.9533 42.6234 47.0413 42.5754 47.1133C42.5274 47.1853 42.4474 47.2213 42.3354 47.2213H38.4834V49.3213C38.4834 49.4653 38.5594 49.5373 38.7114 49.5373C39.6554 49.5373 40.5034 49.5173 41.2554 49.4773C42.0154 49.4293 42.7514 49.3533 43.4634 49.2493C43.5594 49.2333 43.6394 49.2573 43.7034 49.3213C43.7674 49.3773 43.8074 49.4613 43.8234 49.5733C43.8394 49.6853 43.8234 49.7853 43.7754 49.8733C43.7354 49.9533 43.6674 50.0013 43.5714 50.0173C43.2594 50.0573 42.9274 50.0973 42.5754 50.1373C42.2314 50.1693 41.8514 50.1973 41.4354 50.2213C41.0194 50.2453 40.5674 50.2653 40.0794 50.2813C39.5914 50.2893 39.0474 50.2933 38.4474 50.2933C38.1354 50.2933 37.9194 50.2373 37.7994 50.1253C37.6794 50.0053 37.6194 49.7933 37.6194 49.4893V44.2693C37.6194 43.9653 37.6794 43.7573 37.7994 43.6453C37.9194 43.5253 38.1354 43.4653 38.4474 43.4653H42.4554ZM45.3354 42.7093C45.4474 42.7093 45.5474 42.7373 45.6354 42.7933C45.7314 42.8493 45.7794 42.9413 45.7794 43.0693V52.6213C45.7794 52.7493 45.7314 52.8413 45.6354 52.8973C45.5474 52.9533 45.4474 52.9813 45.3354 52.9813C45.2234 52.9813 45.1234 52.9533 45.0354 52.8973C44.9474 52.8413 44.9034 52.7493 44.9034 52.6213V43.0693C44.9034 42.9413 44.9474 42.8493 45.0354 42.7933C45.1234 42.7373 45.2234 42.7093 45.3354 42.7093Z" fill="#AAABAC"/>
</svg>
