<svg width="51" height="55" viewBox="0 0 51 55" fill="none" xmlns="http://www.w3.org/2000/svg">
<path d="M31.4852 5.59326C32.6306 5.5932 33.7328 6.01439 34.5662 6.77066C35.3996 7.52693 35.9012 8.56111 35.9684 9.66159L35.9759 9.91514V12.7964C37.1213 12.7963 38.2235 13.2175 39.0569 13.9738C39.8903 14.7301 40.3919 15.7642 40.4591 16.8647L40.4666 17.1183V22.8808C40.4666 23.9832 40.029 25.0439 39.2432 25.846C38.4574 26.648 37.3828 27.1308 36.2393 27.1954L35.9759 27.2026V28.5943C35.9759 30.0637 34.2649 30.8907 33.0509 30.0825L32.9072 29.9787L29.4464 27.2026H24.0007C22.8975 27.2027 21.8328 26.8119 21.0099 26.1049L20.8003 25.9118L18.0131 27.923C16.829 28.7773 15.16 28.031 15.0282 26.6567L15.0193 26.4823V24.3214C13.8738 24.3215 12.7716 23.9003 11.9383 23.144C11.1049 22.3877 10.6032 21.3536 10.536 20.2531L10.5286 19.9995V9.91514C10.5285 8.81276 10.9661 7.75202 11.752 6.94996C12.5378 6.14789 13.6123 5.66514 14.7558 5.60047L15.0193 5.59326H31.4852ZM35.9759 15.6776H24.0007C23.6037 15.6776 23.2229 15.8294 22.9422 16.0996C22.6615 16.3698 22.5038 16.7362 22.5038 17.1183V22.8808C22.5038 23.2628 22.6615 23.6293 22.9422 23.8994C23.2229 24.1696 23.6037 24.3214 24.0007 24.3214H29.4464C30.1466 24.3217 30.8246 24.5582 31.3624 24.9898L32.991 26.2951C33.0397 25.7565 33.2964 25.255 33.7104 24.8897C34.1244 24.5243 34.6657 24.3215 35.2274 24.3214H35.9759C36.3729 24.3214 36.7536 24.1696 37.0343 23.8994C37.3151 23.6293 37.4728 23.2628 37.4728 22.8808V17.1183C37.4728 16.7362 37.3151 16.3698 37.0343 16.0996C36.7536 15.8294 36.3729 15.6776 35.9759 15.6776ZM31.4852 8.47451H15.0193C14.6223 8.47451 14.2415 8.62629 13.9608 8.89646C13.6801 9.16663 13.5224 9.53306 13.5224 9.91514V19.9995C13.5224 20.3816 13.6801 20.748 13.9608 21.0182C14.2415 21.2884 14.6223 21.4401 15.0193 21.4401H15.7677C16.3632 21.4401 16.9343 21.6678 17.3554 22.0731C17.7765 22.4783 18.0131 23.028 18.0131 23.6011V24.3214L19.5249 23.2308C19.515 23.1144 19.51 22.9976 19.51 22.8808V17.1183C19.51 15.972 19.9831 14.8727 20.8253 14.0622C21.6674 13.2517 22.8097 12.7964 24.0007 12.7964H32.9821V9.91514C32.9821 9.53306 32.8244 9.16663 32.5436 8.89646C32.2629 8.62629 31.8822 8.47451 31.4852 8.47451Z" fill="#EA2F3E"/>
<path d="M5.20181 44.6986C5.01781 44.6986 4.88181 44.6346 4.79381 44.5066C4.70581 44.3786 4.66181 44.2266 4.66181 44.0506C4.66181 43.8746 4.70581 43.7226 4.79381 43.5946C4.88181 43.4666 5.01781 43.4026 5.20181 43.4026H8.71781C9.10181 43.4026 9.36581 43.4746 9.50981 43.6186C9.66181 43.7626 9.73781 44.0226 9.73781 44.3986V45.8746C9.73781 46.2426 9.71781 46.5746 9.67781 46.8706C9.63781 47.1666 9.56181 47.4426 9.44981 47.6986C9.33781 47.9466 9.18581 48.1866 8.99381 48.4186C8.80181 48.6426 8.54981 48.8786 8.23781 49.1266C7.93381 49.3666 7.56181 49.6266 7.12181 49.9066C6.68981 50.1786 6.17781 50.4866 5.58581 50.8306C5.41781 50.9266 5.24581 50.9466 5.06981 50.8906C4.89381 50.8346 4.75781 50.7266 4.66181 50.5666C4.56581 50.4146 4.52181 50.2426 4.52981 50.0506C4.54581 49.8586 4.64581 49.7106 4.82981 49.6066C5.38181 49.2946 5.84981 49.0226 6.23381 48.7906C6.61781 48.5586 6.93381 48.3506 7.18181 48.1666C7.43781 47.9826 7.63381 47.8146 7.76981 47.6626C7.91381 47.5106 8.02181 47.3546 8.09381 47.1946L4.94981 47.3986C4.76581 47.4146 4.62581 47.3626 4.52981 47.2426C4.44181 47.1146 4.38981 46.9586 4.37381 46.7746C4.35781 46.6146 4.38981 46.4626 4.46981 46.3186C4.54981 46.1746 4.68181 46.0986 4.86581 46.0906L8.24981 45.9586V44.9746C8.24981 44.7906 8.15781 44.6986 7.97381 44.6986H5.20181ZM11.7778 47.5066H9.12581V46.2106H11.7778V43.2466C11.7778 43.0226 11.8538 42.8586 12.0058 42.7546C12.1658 42.6506 12.3458 42.5986 12.5458 42.5986C12.7378 42.5986 12.9098 42.6506 13.0618 42.7546C13.2218 42.8586 13.3018 43.0226 13.3018 43.2466V52.4386C13.3018 52.6626 13.2218 52.8266 13.0618 52.9306C12.9098 53.0346 12.7378 53.0866 12.5458 53.0866C12.3458 53.0866 12.1658 53.0346 12.0058 52.9306C11.8538 52.8266 11.7778 52.6626 11.7778 52.4386V47.5066ZM17.2877 47.7346C16.9037 47.7346 16.6357 47.6626 16.4837 47.5186C16.3397 47.3746 16.2677 47.1146 16.2677 46.7386V44.0866C16.2677 43.7106 16.3397 43.4506 16.4837 43.3066C16.6357 43.1626 16.9037 43.0906 17.2877 43.0906H22.7837C23.1677 43.0906 23.4317 43.1626 23.5757 43.3066C23.7277 43.4506 23.8037 43.7106 23.8037 44.0866V46.7386C23.8037 47.1146 23.7277 47.3746 23.5757 47.5186C23.4317 47.6626 23.1677 47.7346 22.7837 47.7346H17.2877ZM21.9797 46.4386C22.1637 46.4386 22.2557 46.3466 22.2557 46.1626V44.6626C22.2557 44.4786 22.1637 44.3866 21.9797 44.3866H18.0917C17.9077 44.3866 17.8157 44.4786 17.8157 44.6626V46.1626C17.8157 46.3466 17.9077 46.4386 18.0917 46.4386H21.9797ZM19.0877 50.1346V53.2306C19.0877 53.4546 19.0117 53.6146 18.8597 53.7106C18.7077 53.8146 18.5397 53.8666 18.3557 53.8666C18.1637 53.8666 17.9917 53.8146 17.8397 53.7106C17.6877 53.6146 17.6117 53.4546 17.6117 53.2306V50.1346H15.4997C15.3157 50.1346 15.1797 50.0706 15.0917 49.9426C15.0037 49.8146 14.9597 49.6666 14.9597 49.4986C14.9597 49.3226 15.0037 49.1706 15.0917 49.0426C15.1797 48.9146 15.3157 48.8506 15.4997 48.8506H24.5717C24.7557 48.8506 24.8917 48.9146 24.9797 49.0426C25.0677 49.1706 25.1117 49.3226 25.1117 49.4986C25.1117 49.6666 25.0677 49.8146 24.9797 49.9426C24.8917 50.0706 24.7557 50.1346 24.5717 50.1346H22.4597V53.2306C22.4597 53.4546 22.3837 53.6146 22.2317 53.7106C22.0797 53.8146 21.9117 53.8666 21.7277 53.8666C21.5357 53.8666 21.3637 53.8146 21.2117 53.7106C21.0597 53.6146 20.9837 53.4546 20.9837 53.2306V50.1346H19.0877ZM27.5496 50.3026C27.1656 50.3026 26.8976 50.2306 26.7456 50.0866C26.6016 49.9426 26.5296 49.6826 26.5296 49.3066V43.9426C26.5296 43.7186 26.6056 43.5546 26.7576 43.4506C26.9176 43.3466 27.0976 43.2946 27.2976 43.2946C27.5056 43.2946 27.6856 43.3466 27.8376 43.4506C27.9976 43.5546 28.0776 43.7186 28.0776 43.9426V48.7186C28.0776 48.9026 28.1696 48.9946 28.3536 48.9946C29.0816 48.9946 29.7576 48.9786 30.3816 48.9466C31.0056 48.9066 31.6096 48.8466 32.1936 48.7666C32.3776 48.7426 32.5216 48.7866 32.6256 48.8986C32.7376 49.0106 32.8016 49.1546 32.8176 49.3306C32.8336 49.5146 32.8096 49.6786 32.7456 49.8226C32.6816 49.9586 32.5616 50.0386 32.3856 50.0626C32.1376 50.0946 31.8616 50.1266 31.5576 50.1586C31.2616 50.1826 30.9176 50.2066 30.5256 50.2306C30.1336 50.2546 29.6936 50.2746 29.2056 50.2906C28.7176 50.2986 28.1656 50.3026 27.5496 50.3026ZM35.0736 52.4386C35.0736 52.6626 34.9936 52.8266 34.8336 52.9306C34.6816 53.0346 34.5016 53.0866 34.2936 53.0866C34.0936 53.0866 33.9136 53.0346 33.7536 52.9306C33.6016 52.8266 33.5256 52.6626 33.5256 52.4386V43.2466C33.5256 43.0226 33.6016 42.8586 33.7536 42.7546C33.9136 42.6506 34.0936 42.5986 34.2936 42.5986C34.5016 42.5986 34.6816 42.6506 34.8336 42.7546C34.9936 42.8586 35.0736 43.0226 35.0736 43.2466V52.4386ZM42.2514 43.3306C42.4434 43.3306 42.5834 43.3946 42.6714 43.5226C42.7594 43.6506 42.8034 43.8026 42.8034 43.9786C42.8034 44.1546 42.7594 44.3066 42.6714 44.4346C42.5834 44.5626 42.4434 44.6266 42.2514 44.6266H39.2274C39.0434 44.6266 38.9514 44.7186 38.9514 44.9026V46.2226H42.1554C42.3394 46.2226 42.4714 46.2866 42.5514 46.4146C42.6394 46.5346 42.6834 46.6826 42.6834 46.8586C42.6834 47.0346 42.6394 47.1866 42.5514 47.3146C42.4714 47.4346 42.3394 47.4946 42.1554 47.4946H38.9514V48.8506C38.9514 49.0346 39.0434 49.1266 39.2274 49.1266C39.9794 49.1266 40.6674 49.1106 41.2914 49.0786C41.9234 49.0386 42.5314 48.9786 43.1154 48.8986C43.2994 48.8746 43.4434 48.9186 43.5474 49.0306C43.6594 49.1346 43.7234 49.2786 43.7394 49.4626C43.7554 49.6386 43.7314 49.7986 43.6674 49.9426C43.6034 50.0786 43.4834 50.1586 43.3074 50.1826C43.0594 50.2146 42.7834 50.2466 42.4794 50.2786C42.1754 50.3026 41.8274 50.3266 41.4354 50.3506C41.0514 50.3746 40.6114 50.3946 40.1154 50.4106C39.6274 50.4186 39.0714 50.4226 38.4474 50.4226C38.0634 50.4226 37.7954 50.3506 37.6434 50.2066C37.4994 50.0626 37.4274 49.8026 37.4274 49.4266V44.3266C37.4274 43.9506 37.4994 43.6906 37.6434 43.5466C37.7954 43.4026 38.0634 43.3306 38.4474 43.3306H42.2514ZM45.9954 52.4386C45.9954 52.6626 45.9154 52.8266 45.7554 52.9306C45.6034 53.0346 45.4234 53.0866 45.2154 53.0866C45.0154 53.0866 44.8354 53.0346 44.6754 52.9306C44.5234 52.8266 44.4474 52.6626 44.4474 52.4386V43.2466C44.4474 43.0226 44.5234 42.8586 44.6754 42.7546C44.8354 42.6506 45.0154 42.5986 45.2154 42.5986C45.4234 42.5986 45.6034 42.6506 45.7554 42.7546C45.9154 42.8586 45.9954 43.0226 45.9954 43.2466V52.4386Z" fill="#EA2F3E"/>
</svg>
