<svg width="51" height="55" viewBox="0 0 51 55" fill="none" xmlns="http://www.w3.org/2000/svg">
<path d="M32.1802 4.30518H16.1419C15.7875 4.30518 15.4475 4.44937 15.1969 4.70603C14.9462 4.96269 14.8054 5.3108 14.8054 5.67377V27.5713C14.8054 27.9343 14.9462 28.2824 15.1969 28.539C15.4475 28.7957 15.7875 28.9399 16.1419 28.9399H17.4785V30.3085C17.4785 30.6714 17.6193 31.0196 17.8699 31.2762C18.1206 31.5329 18.4605 31.6771 18.815 31.6771C19.1694 31.6771 19.5094 31.5329 19.76 31.2762C20.0107 31.0196 20.1515 30.6714 20.1515 30.3085V28.9399H32.1802C33.2436 28.9399 34.2634 28.5073 35.0153 27.7373C35.7673 26.9673 36.1897 25.923 36.1897 24.8341V8.41096C36.1897 7.32204 35.7673 6.27772 35.0153 5.50773C34.2634 4.73775 33.2436 4.30518 32.1802 4.30518ZM28.1706 26.2027H17.4785V7.04236H28.1706V26.2027ZM33.5167 24.8341C33.5167 25.1971 33.3759 25.5452 33.1252 25.8018C32.8746 26.0585 32.5346 26.2027 32.1802 26.2027H30.8436V7.04236H32.1802C32.5346 7.04236 32.8746 7.18656 33.1252 7.44322C33.3759 7.69988 33.5167 8.04799 33.5167 8.41096V24.8341Z" fill="#EA2F3E"/>
<path d="M4.15781 46.8523C4.15781 45.6603 4.39781 44.7563 4.87781 44.1403C5.35781 43.5243 6.07781 43.2163 7.03781 43.2163C7.99781 43.2163 8.71781 43.5243 9.19781 44.1403C9.67781 44.7563 9.91781 45.6603 9.91781 46.8523C9.91781 48.0443 9.67781 48.9483 9.19781 49.5643C8.71781 50.1803 7.99781 50.4883 7.03781 50.4883C6.07781 50.4883 5.35781 50.1803 4.87781 49.5643C4.39781 48.9483 4.15781 48.0443 4.15781 46.8523ZM8.44181 46.8523C8.44181 46.0923 8.33781 45.5203 8.12981 45.1363C7.92181 44.7443 7.55781 44.5483 7.03781 44.5483C6.51781 44.5483 6.15381 44.7443 5.94581 45.1363C5.73781 45.5203 5.63381 46.0923 5.63381 46.8523C5.63381 47.6123 5.73781 48.1883 5.94581 48.5803C6.15381 48.9643 6.51781 49.1563 7.03781 49.1563C7.55781 49.1563 7.92181 48.9643 8.12981 48.5803C8.33781 48.1883 8.44181 47.6123 8.44181 46.8523ZM12.7138 44.7763H13.7338C13.9258 44.7763 14.0658 44.8403 14.1538 44.9683C14.2418 45.0963 14.2858 45.2523 14.2858 45.4363C14.2858 45.6203 14.2418 45.7763 14.1538 45.9043C14.0658 46.0323 13.9258 46.0963 13.7338 46.0963H12.7138V47.4883H13.7338C13.9258 47.4883 14.0658 47.5523 14.1538 47.6803C14.2418 47.8083 14.2858 47.9643 14.2858 48.1483C14.2858 48.3323 14.2418 48.4883 14.1538 48.6163C14.0658 48.7443 13.9258 48.8083 13.7338 48.8083H12.7138V52.4323C12.7138 52.6563 12.6338 52.8203 12.4738 52.9243C12.3218 53.0283 12.1458 53.0803 11.9458 53.0803C11.7458 53.0803 11.5658 53.0283 11.4058 52.9243C11.2538 52.8203 11.1778 52.6563 11.1778 52.4323V43.2403C11.1778 43.0163 11.2538 42.8523 11.4058 42.7483C11.5658 42.6443 11.7458 42.5923 11.9458 42.5923C12.1458 42.5923 12.3218 42.6443 12.4738 42.7483C12.6338 42.8523 12.7138 43.0163 12.7138 43.2403V44.7763ZM16.6877 44.4763C16.5037 44.4763 16.3677 44.4123 16.2797 44.2843C16.1917 44.1563 16.1477 44.0003 16.1477 43.8163C16.1477 43.6323 16.1917 43.4763 16.2797 43.3483C16.3677 43.2203 16.5037 43.1563 16.6877 43.1563H22.6877C23.0717 43.1563 23.3357 43.2283 23.4797 43.3723C23.6317 43.5163 23.7077 43.7763 23.7077 44.1523V44.9683C23.7077 45.6563 23.6637 46.3243 23.5757 46.9723C23.4877 47.6123 23.3517 48.1803 23.1677 48.6763L21.7637 48.4363C21.9157 47.8763 22.0237 47.3163 22.0877 46.7563C22.1517 46.1883 22.1837 45.6123 22.1837 45.0283V44.7523C22.1837 44.5683 22.0917 44.4763 21.9077 44.4763H16.6877ZM15.4997 49.3003C15.3157 49.3003 15.1797 49.2363 15.0917 49.1083C15.0037 48.9803 14.9597 48.8283 14.9597 48.6523C14.9597 48.4763 15.0037 48.3243 15.0917 48.1963C15.1797 48.0683 15.3157 48.0043 15.4997 48.0043H24.5717C24.7557 48.0043 24.8917 48.0683 24.9797 48.1963C25.0677 48.3243 25.1117 48.4763 25.1117 48.6523C25.1117 48.8283 25.0677 48.9803 24.9797 49.1083C24.8917 49.2363 24.7557 49.3003 24.5717 49.3003H20.8037V53.2723C20.8037 53.4963 20.7237 53.6603 20.5637 53.7643C20.4117 53.8683 20.2357 53.9203 20.0357 53.9203C19.8357 53.9203 19.6557 53.8683 19.4957 53.7643C19.3437 53.6603 19.2677 53.4963 19.2677 53.2723V49.3003H15.4997ZM26.2416 45.4483C26.2416 45.0803 26.3016 44.7403 26.4216 44.4283C26.5496 44.1163 26.7336 43.8483 26.9736 43.6243C27.2216 43.4003 27.5216 43.2283 27.8736 43.1083C28.2336 42.9803 28.6496 42.9163 29.1216 42.9163C29.5856 42.9163 29.9976 42.9803 30.3576 43.1083C30.7176 43.2283 31.0176 43.4003 31.2576 43.6243C31.5056 43.8483 31.6896 44.1163 31.8096 44.4283C31.9376 44.7403 32.0016 45.0803 32.0016 45.4483C32.0016 45.8163 31.9376 46.1563 31.8096 46.4683C31.6896 46.7803 31.5056 47.0483 31.2576 47.2723C31.0176 47.4963 30.7176 47.6723 30.3576 47.8003C29.9976 47.9203 29.5856 47.9803 29.1216 47.9803C28.6496 47.9803 28.2336 47.9203 27.8736 47.8003C27.5216 47.6723 27.2216 47.4963 26.9736 47.2723C26.7336 47.0483 26.5496 46.7803 26.4216 46.4683C26.3016 46.1563 26.2416 45.8163 26.2416 45.4483ZM30.5376 45.4483C30.5376 45.2723 30.5096 45.1083 30.4536 44.9563C30.4056 44.7963 30.3216 44.6563 30.2016 44.5363C30.0896 44.4163 29.9416 44.3243 29.7576 44.2603C29.5816 44.1883 29.3696 44.1523 29.1216 44.1523C28.8656 44.1523 28.6496 44.1883 28.4736 44.2603C28.2976 44.3243 28.1496 44.4163 28.0296 44.5363C27.9176 44.6563 27.8336 44.7963 27.7776 44.9563C27.7296 45.1083 27.7056 45.2723 27.7056 45.4483C27.7056 45.6243 27.7296 45.7923 27.7776 45.9523C27.8336 46.1043 27.9176 46.2403 28.0296 46.3603C28.1496 46.4803 28.2976 46.5763 28.4736 46.6483C28.6496 46.7123 28.8656 46.7443 29.1216 46.7443C29.3696 46.7443 29.5816 46.7123 29.7576 46.6483C29.9416 46.5763 30.0896 46.4803 30.2016 46.3603C30.3216 46.2403 30.4056 46.1043 30.4536 45.9523C30.5096 45.7923 30.5376 45.6243 30.5376 45.4483ZM35.0736 47.6683C35.0736 47.8923 34.9936 48.0563 34.8336 48.1603C34.6816 48.2643 34.5056 48.3163 34.3056 48.3163C34.1056 48.3163 33.9256 48.2643 33.7656 48.1603C33.6136 48.0563 33.5376 47.8923 33.5376 47.6683V43.2403C33.5376 43.0163 33.6136 42.8523 33.7656 42.7483C33.9256 42.6443 34.1056 42.5923 34.3056 42.5923C34.5056 42.5923 34.6816 42.6443 34.8336 42.7483C34.9936 42.8523 35.0736 43.0163 35.0736 43.2403V47.6683ZM33.2976 50.6923C33.4816 50.6923 33.5736 50.6003 33.5736 50.4163V50.2483C33.5736 50.0643 33.4816 49.9723 33.2976 49.9723H28.3536C28.1776 49.9723 28.0496 49.9123 27.9696 49.7923C27.8896 49.6643 27.8496 49.5203 27.8496 49.3603C27.8496 49.2003 27.8896 49.0603 27.9696 48.9403C28.0496 48.8203 28.1776 48.7603 28.3536 48.7603H34.0536C34.4376 48.7603 34.7016 48.8323 34.8456 48.9763C34.9976 49.1203 35.0736 49.3803 35.0736 49.7563V50.8603C35.0736 51.2363 34.9976 51.4963 34.8456 51.6403C34.7016 51.7843 34.4376 51.8563 34.0536 51.8563H29.6496C29.4656 51.8563 29.3736 51.9483 29.3736 52.1323V52.3003C29.3736 52.4843 29.4656 52.5763 29.6496 52.5763H34.8096C34.9856 52.5763 35.1136 52.6363 35.1936 52.7563C35.2736 52.8843 35.3136 53.0283 35.3136 53.1883C35.3136 53.3483 35.2736 53.4883 35.1936 53.6083C35.1136 53.7283 34.9856 53.7883 34.8096 53.7883H28.8936C28.5096 53.7883 28.2416 53.7163 28.0896 53.5723C27.9456 53.4283 27.8736 53.1683 27.8736 52.7923V51.6883C27.8736 51.3123 27.9456 51.0523 28.0896 50.9083C28.2416 50.7643 28.5096 50.6923 28.8936 50.6923H33.2976ZM37.9194 44.7163C37.7354 44.7163 37.5994 44.6523 37.5114 44.5243C37.4234 44.3963 37.3794 44.2443 37.3794 44.0683C37.3794 43.8843 37.4234 43.7283 37.5114 43.6003C37.5994 43.4723 37.7354 43.4083 37.9194 43.4083H41.5314C41.9154 43.4083 42.1794 43.4803 42.3234 43.6243C42.4754 43.7683 42.5514 44.0283 42.5514 44.4043V45.7363C42.5514 46.0723 42.5314 46.3763 42.4914 46.6483C42.4514 46.9203 42.3754 47.1803 42.2634 47.4283C42.1594 47.6683 42.0114 47.9043 41.8194 48.1363C41.6274 48.3683 41.3754 48.6123 41.0634 48.8683C40.7514 49.1243 40.3714 49.4003 39.9234 49.6963C39.4834 49.9923 38.9594 50.3243 38.3514 50.6923C38.1834 50.7963 38.0074 50.8163 37.8234 50.7523C37.6474 50.6803 37.5114 50.5723 37.4154 50.4283C37.3194 50.2843 37.2714 50.1163 37.2714 49.9243C37.2714 49.7323 37.3594 49.5803 37.5354 49.4683C38.0794 49.1403 38.5434 48.8523 38.9274 48.6043C39.3194 48.3483 39.6434 48.1203 39.8994 47.9203C40.1634 47.7203 40.3674 47.5363 40.5114 47.3683C40.6634 47.2003 40.7754 47.0323 40.8474 46.8643C40.9274 46.6883 40.9754 46.5083 40.9914 46.3243C41.0154 46.1403 41.0274 45.9283 41.0274 45.6883V44.9923C41.0274 44.8083 40.9354 44.7163 40.7514 44.7163H37.9194ZM45.9954 52.4323C45.9954 52.6563 45.9154 52.8203 45.7554 52.9243C45.6034 53.0283 45.4234 53.0803 45.2154 53.0803C45.0154 53.0803 44.8354 53.0283 44.6754 52.9243C44.5234 52.8203 44.4474 52.6563 44.4474 52.4323V43.2403C44.4474 43.0163 44.5234 42.8523 44.6754 42.7483C44.8354 42.6443 45.0154 42.5923 45.2154 42.5923C45.4234 42.5923 45.6034 42.6443 45.7554 42.7483C45.9154 42.8523 45.9954 43.0163 45.9954 43.2403V52.4323Z" fill="#EA2F3E"/>
</svg>
