<svg width="51" height="55" viewBox="0 0 51 55" fill="none" xmlns="http://www.w3.org/2000/svg">
<path d="M32.1802 4.31104H16.1419C15.7875 4.31104 15.4475 4.45523 15.1969 4.71189C14.9462 4.96855 14.8054 5.31666 14.8054 5.67963V27.5771C14.8054 27.9401 14.9462 28.2882 15.1969 28.5449C15.4475 28.8015 15.7875 28.9457 16.1419 28.9457H17.4785V30.3143C17.4785 30.6773 17.6193 31.0254 17.8699 31.2821C18.1206 31.5387 18.4605 31.6829 18.815 31.6829C19.1694 31.6829 19.5094 31.5387 19.76 31.2821C20.0107 31.0254 20.1515 30.6773 20.1515 30.3143V28.9457H32.1802C33.2436 28.9457 34.2634 28.5132 35.0153 27.7432C35.7673 26.9732 36.1897 25.9289 36.1897 24.84V8.41682C36.1897 7.3279 35.7673 6.28358 35.0153 5.51359C34.2634 4.74361 33.2436 4.31104 32.1802 4.31104ZM28.1706 26.2085H17.4785V7.04822H28.1706V26.2085ZM33.5167 24.84C33.5167 25.2029 33.3759 25.551 33.1252 25.8077C32.8746 26.0644 32.5346 26.2085 32.1802 26.2085H30.8436V7.04822H32.1802C32.5346 7.04822 32.8746 7.19241 33.1252 7.44908C33.3759 7.70574 33.5167 8.05384 33.5167 8.41682V24.84Z" fill="#AAABAC"/>
<path d="M7.07381 43.3541C7.96981 43.3541 8.64581 43.6541 9.10181 44.2541C9.55781 44.8461 9.78581 45.7141 9.78581 46.8581C9.78581 48.0021 9.55781 48.8741 9.10181 49.4741C8.64581 50.0661 7.96981 50.3621 7.07381 50.3621C6.17781 50.3621 5.49781 50.0661 5.03381 49.4741C4.57781 48.8741 4.34981 48.0021 4.34981 46.8581C4.34981 45.7141 4.57781 44.8461 5.03381 44.2541C5.49781 43.6541 6.17781 43.3541 7.07381 43.3541ZM7.07381 44.1341C6.42581 44.1341 5.95381 44.3701 5.65781 44.8421C5.36181 45.3141 5.21381 45.9861 5.21381 46.8581C5.21381 47.7301 5.36181 48.4021 5.65781 48.8741C5.95381 49.3461 6.42581 49.5821 7.07381 49.5821C7.72181 49.5821 8.19381 49.3461 8.48981 48.8741C8.78581 48.4021 8.93381 47.7301 8.93381 46.8581C8.93381 45.9861 8.78581 45.3141 8.48981 44.8421C8.19381 44.3701 7.72181 44.1341 7.07381 44.1341ZM12.0538 42.7061C12.1658 42.7061 12.2658 42.7341 12.3538 42.7901C12.4498 42.8461 12.4978 42.9381 12.4978 43.0661V45.0341H13.9378C14.0498 45.0341 14.1298 45.0741 14.1778 45.1541C14.2258 45.2261 14.2498 45.3181 14.2498 45.4301C14.2498 45.5341 14.2258 45.6221 14.1778 45.6941C14.1298 45.7661 14.0498 45.8021 13.9378 45.8021H12.4978V47.7941H13.9378C14.0498 47.7941 14.1298 47.8301 14.1778 47.9021C14.2258 47.9741 14.2498 48.0661 14.2498 48.1781C14.2498 48.2821 14.2258 48.3741 14.1778 48.4541C14.1298 48.5261 14.0498 48.5621 13.9378 48.5621H12.4978V52.6181C12.4978 52.7461 12.4498 52.8381 12.3538 52.8941C12.2658 52.9501 12.1658 52.9781 12.0538 52.9781C11.9418 52.9781 11.8418 52.9501 11.7538 52.8941C11.6658 52.8381 11.6218 52.7461 11.6218 52.6181V43.0661C11.6218 42.9381 11.6658 42.8461 11.7538 42.7901C11.8418 42.7341 11.9418 42.7061 12.0538 42.7061ZM22.6757 43.2941C22.9877 43.2941 23.2037 43.3541 23.3237 43.4741C23.4437 43.5861 23.5037 43.7941 23.5037 44.0981V44.7941C23.5037 45.5061 23.4637 46.1861 23.3837 46.8341C23.3037 47.4821 23.1797 48.0781 23.0117 48.6221L22.1957 48.4661C22.3557 47.8741 22.4677 47.2861 22.5317 46.7021C22.6037 46.1101 22.6397 45.4901 22.6397 44.8421V44.2781C22.6397 44.1901 22.6237 44.1341 22.5917 44.1101C22.5597 44.0781 22.4997 44.0621 22.4117 44.0621H16.6517C16.5477 44.0621 16.4717 44.0261 16.4237 43.9541C16.3757 43.8741 16.3517 43.7821 16.3517 43.6781C16.3517 43.5661 16.3757 43.4741 16.4237 43.4021C16.4717 43.3301 16.5477 43.2941 16.6517 43.2941H22.6757ZM24.7277 48.2501C24.8397 48.2501 24.9197 48.2861 24.9677 48.3581C25.0157 48.4301 25.0397 48.5221 25.0397 48.6341C25.0397 48.7381 25.0157 48.8261 24.9677 48.8981C24.9197 48.9701 24.8397 49.0061 24.7277 49.0061H20.4797V53.4581C20.4797 53.5861 20.4317 53.6781 20.3357 53.7341C20.2477 53.7901 20.1477 53.8181 20.0357 53.8181C19.9237 53.8181 19.8237 53.7901 19.7357 53.7341C19.6477 53.6781 19.6037 53.5861 19.6037 53.4581V49.0061H15.3437C15.2317 49.0061 15.1517 48.9701 15.1037 48.8981C15.0557 48.8261 15.0317 48.7381 15.0317 48.6341C15.0317 48.5221 15.0557 48.4301 15.1037 48.3581C15.1517 48.2861 15.2317 48.2501 15.3437 48.2501H24.7277ZM29.1456 43.0421C29.6016 43.0421 29.9976 43.1061 30.3336 43.2341C30.6696 43.3541 30.9496 43.5221 31.1736 43.7381C31.4056 43.9541 31.5776 44.2101 31.6896 44.5061C31.8016 44.7941 31.8576 45.1061 31.8576 45.4421C31.8576 45.7781 31.8016 46.0941 31.6896 46.3901C31.5776 46.6781 31.4056 46.9301 31.1736 47.1461C30.9496 47.3541 30.6696 47.5221 30.3336 47.6501C29.9976 47.7701 29.6016 47.8301 29.1456 47.8301C28.6896 47.8301 28.2936 47.7701 27.9576 47.6501C27.6216 47.5221 27.3376 47.3541 27.1056 47.1461C26.8816 46.9301 26.7136 46.6781 26.6016 46.3901C26.4896 46.0941 26.4336 45.7781 26.4336 45.4421C26.4336 45.1061 26.4896 44.7941 26.6016 44.5061C26.7136 44.2101 26.8816 43.9541 27.1056 43.7381C27.3376 43.5221 27.6216 43.3541 27.9576 43.2341C28.2936 43.1061 28.6896 43.0421 29.1456 43.0421ZM29.1456 43.7741C28.8176 43.7741 28.5376 43.8181 28.3056 43.9061C28.0736 43.9941 27.8816 44.1141 27.7296 44.2661C27.5776 44.4181 27.4656 44.5981 27.3936 44.8061C27.3216 45.0061 27.2856 45.2181 27.2856 45.4421C27.2856 45.6661 27.3216 45.8781 27.3936 46.0781C27.4656 46.2781 27.5776 46.4541 27.7296 46.6061C27.8816 46.7581 28.0736 46.8781 28.3056 46.9661C28.5376 47.0541 28.8176 47.0981 29.1456 47.0981C29.4656 47.0981 29.7416 47.0541 29.9736 46.9661C30.2136 46.8781 30.4096 46.7581 30.5616 46.6061C30.7136 46.4541 30.8256 46.2781 30.8976 46.0781C30.9696 45.8781 31.0056 45.6661 31.0056 45.4421C31.0056 45.2181 30.9696 45.0061 30.8976 44.8061C30.8256 44.5981 30.7136 44.4181 30.5616 44.2661C30.4096 44.1141 30.2136 43.9941 29.9736 43.9061C29.7416 43.8181 29.4656 43.7741 29.1456 43.7741ZM34.4136 42.7061C34.5256 42.7061 34.6256 42.7341 34.7136 42.7901C34.8096 42.8461 34.8576 42.9381 34.8576 43.0661V47.9621C34.8576 48.0901 34.8096 48.1821 34.7136 48.2381C34.6256 48.2941 34.5256 48.3221 34.4136 48.3221C34.3016 48.3221 34.2016 48.2941 34.1136 48.2381C34.0256 48.1821 33.9816 48.0901 33.9816 47.9621V43.0661C33.9816 42.9381 34.0256 42.8461 34.1136 42.7901C34.2016 42.7341 34.3016 42.7061 34.4136 42.7061ZM34.0296 48.9221C34.3416 48.9221 34.5576 48.9821 34.6776 49.1021C34.7976 49.2141 34.8576 49.4221 34.8576 49.7261V50.8301C34.8576 51.1341 34.7976 51.3461 34.6776 51.4661C34.5576 51.5781 34.3416 51.6341 34.0296 51.6341H29.1576C29.0776 51.6341 29.0176 51.6501 28.9776 51.6821C28.9456 51.7061 28.9296 51.7621 28.9296 51.8501V52.7021C28.9296 52.8541 29.0056 52.9301 29.1576 52.9301H34.8576C34.9536 52.9301 35.0256 52.9661 35.0736 53.0381C35.1216 53.1101 35.1456 53.1941 35.1456 53.2901C35.1456 53.3861 35.1216 53.4701 35.0736 53.5421C35.0256 53.6141 34.9536 53.6501 34.8576 53.6501H28.9056C28.5936 53.6501 28.3776 53.5901 28.2576 53.4701C28.1376 53.3581 28.0776 53.1501 28.0776 52.8461V51.7301C28.0776 51.4261 28.1376 51.2181 28.2576 51.1061C28.3776 50.9861 28.5936 50.9261 28.9056 50.9261H33.7776C33.8656 50.9261 33.9256 50.9141 33.9576 50.8901C33.9896 50.8581 34.0056 50.7981 34.0056 50.7101V49.8581C34.0056 49.7141 33.9296 49.6421 33.7776 49.6421H28.3416C28.2456 49.6421 28.1736 49.6061 28.1256 49.5341C28.0776 49.4621 28.0536 49.3781 28.0536 49.2821C28.0536 49.1861 28.0776 49.1021 28.1256 49.0301C28.1736 48.9581 28.2456 48.9221 28.3416 48.9221H34.0296ZM41.5674 43.5461C41.8794 43.5461 42.0954 43.6061 42.2154 43.7261C42.3354 43.8381 42.3954 44.0461 42.3954 44.3501V45.7061C42.3954 46.0421 42.3754 46.3421 42.3354 46.6061C42.2954 46.8701 42.2154 47.1221 42.0954 47.3621C41.9834 47.5941 41.8234 47.8221 41.6154 48.0461C41.4154 48.2701 41.1554 48.5101 40.8354 48.7661C40.5154 49.0141 40.1274 49.2861 39.6714 49.5821C39.2154 49.8781 38.6794 50.2181 38.0634 50.6021C37.9754 50.6581 37.8794 50.6701 37.7754 50.6381C37.6794 50.6061 37.5994 50.5461 37.5354 50.4581C37.4714 50.3701 37.4434 50.2701 37.4514 50.1581C37.4594 50.0461 37.5114 49.9581 37.6074 49.8941C38.4794 49.3661 39.1754 48.9261 39.6954 48.5741C40.2154 48.2221 40.6114 47.9021 40.8834 47.6141C41.1554 47.3181 41.3314 47.0261 41.4114 46.7381C41.4914 46.4421 41.5314 46.0861 41.5314 45.6701V44.5301C41.5314 44.3861 41.4554 44.3141 41.3034 44.3141H37.8834C37.7714 44.3141 37.6914 44.2781 37.6434 44.2061C37.5954 44.1261 37.5714 44.0341 37.5714 43.9301C37.5714 43.8261 37.5954 43.7381 37.6434 43.6661C37.6914 43.5861 37.7714 43.5461 37.8834 43.5461H41.5674ZM45.3354 42.7061C45.4474 42.7061 45.5474 42.7341 45.6354 42.7901C45.7314 42.8461 45.7794 42.9381 45.7794 43.0661V52.6181C45.7794 52.7461 45.7314 52.8381 45.6354 52.8941C45.5474 52.9501 45.4474 52.9781 45.3354 52.9781C45.2234 52.9781 45.1234 52.9501 45.0354 52.8941C44.9474 52.8381 44.9034 52.7461 44.9034 52.6181V43.0661C44.9034 42.9381 44.9474 42.8461 45.0354 42.7901C45.1234 42.7341 45.2234 42.7061 45.3354 42.7061Z" fill="#AAABAC"/>
</svg>
