<svg width="51" height="55" viewBox="0 0 51 55" fill="none" xmlns="http://www.w3.org/2000/svg">
<path d="M37.4368 17.9913C37.4368 24.5854 32.0915 29.9307 25.4974 29.9307C18.9033 29.9307 13.5581 24.5854 13.5581 17.9913C13.5581 11.3972 18.9033 6.052 25.4974 6.052C32.0915 6.052 37.4368 11.3972 37.4368 17.9913Z" stroke="#EA2F3E" stroke-width="2.56611" stroke-linecap="round" stroke-linejoin="round"/>
<path d="M25.4974 29.9307C25.4974 29.7078 25.4915 29.4869 25.4795 29.268M13.5581 17.9913C13.8041 17.9913 14.0484 17.9985 14.2912 18.0128M17.5458 18.6731C17.9454 18.8155 18.3346 18.9775 18.7135 19.159M21.5407 21.0514C21.8512 21.3308 22.1461 21.6257 22.4254 21.9361M24.3536 24.8242C24.5192 25.1752 24.6684 25.5354 24.8014 25.9047M25.4974 6.052C25.4974 6.27487 25.5034 6.49575 25.5153 6.71463M37.4368 17.9913C37.1916 17.9913 36.9472 17.9842 36.7037 17.9698M33.449 17.3096C33.0515 17.1684 32.6617 17.0062 32.2814 16.8237M29.4541 14.9313C29.1437 14.6519 28.8488 14.357 28.5694 14.0466M26.6412 11.1585C26.4744 10.8058 26.325 10.4452 26.1935 10.0779" stroke="#EA2F3E" stroke-width="2.56611" stroke-linecap="round" stroke-linejoin="round"/>
<path d="M5.08181 44.5123C4.89781 44.5123 4.76181 44.4483 4.67381 44.3203C4.58581 44.1923 4.54181 44.0403 4.54181 43.8643C4.54181 43.6803 4.58581 43.5243 4.67381 43.3963C4.76181 43.2683 4.89781 43.2043 5.08181 43.2043H8.54981C8.93381 43.2043 9.19781 43.2763 9.34181 43.4203C9.49381 43.5643 9.56981 43.8243 9.56981 44.2003V45.1123C9.56981 45.5603 9.52181 45.9403 9.42581 46.2523C9.32981 46.5563 9.13381 46.8443 8.83781 47.1163C8.54181 47.3883 8.12181 47.6723 7.57781 47.9683C7.03381 48.2643 6.31381 48.6243 5.41781 49.0483C5.22581 49.1363 5.04581 49.1363 4.87781 49.0483C4.70981 48.9603 4.58981 48.8363 4.51781 48.6763C4.47781 48.6043 4.44981 48.5243 4.43381 48.4363C4.42581 48.3483 4.42981 48.2643 4.44581 48.1843C4.46181 48.0963 4.49381 48.0163 4.54181 47.9443C4.59781 47.8723 4.67781 47.8123 4.78181 47.7643C5.58181 47.3963 6.20181 47.0963 6.64181 46.8643C7.08181 46.6243 7.40581 46.4163 7.61381 46.2403C7.82181 46.0563 7.94581 45.8803 7.98581 45.7123C8.02581 45.5363 8.04581 45.3203 8.04581 45.0643V44.7883C8.04581 44.6043 7.95381 44.5123 7.76981 44.5123H5.08181ZM13.3018 48.5563C13.3018 48.7803 13.2218 48.9443 13.0618 49.0483C12.9098 49.1523 12.7378 49.2043 12.5458 49.2043C12.3538 49.2043 12.1778 49.1523 12.0178 49.0483C11.8658 48.9443 11.7898 48.7803 11.7898 48.5563V47.7523H10.4458C10.2618 47.7523 10.1258 47.6883 10.0378 47.5603C9.95781 47.4323 9.91781 47.2763 9.91781 47.0923C9.91781 46.9163 9.95781 46.7643 10.0378 46.6363C10.1258 46.5083 10.2618 46.4443 10.4458 46.4443H11.7898V45.4963H10.5418C10.3578 45.4963 10.2218 45.4323 10.1338 45.3043C10.0538 45.1763 10.0138 45.0203 10.0138 44.8363C10.0138 44.6603 10.0538 44.5083 10.1338 44.3803C10.2218 44.2523 10.3578 44.1883 10.5418 44.1883H11.7898V43.2403C11.7898 43.0163 11.8658 42.8523 12.0178 42.7483C12.1778 42.6443 12.3538 42.5923 12.5458 42.5923C12.7378 42.5923 12.9098 42.6443 13.0618 42.7483C13.2218 42.8523 13.3018 43.0163 13.3018 43.2403V48.5563ZM6.08981 51.6043C6.08981 50.8283 6.40981 50.2483 7.04981 49.8643C7.69781 49.4723 8.58581 49.2763 9.71381 49.2763C10.8418 49.2763 11.7258 49.4723 12.3658 49.8643C13.0138 50.2483 13.3378 50.8283 13.3378 51.6043C13.3378 52.3883 13.0138 52.9723 12.3658 53.3563C11.7258 53.7403 10.8418 53.9323 9.71381 53.9323C8.58581 53.9323 7.69781 53.7403 7.04981 53.3563C6.40981 52.9723 6.08981 52.3883 6.08981 51.6043ZM11.8138 51.6043C11.8138 51.2763 11.6498 51.0123 11.3218 50.8123C11.0018 50.6043 10.4658 50.5003 9.71381 50.5003C8.95381 50.5003 8.41381 50.6043 8.09381 50.8123C7.77381 51.0123 7.61381 51.2763 7.61381 51.6043C7.61381 51.9323 7.77381 52.1963 8.09381 52.3963C8.41381 52.6043 8.95381 52.7083 9.71381 52.7083C10.4658 52.7083 11.0018 52.6043 11.3218 52.3963C11.6498 52.1963 11.8138 51.9323 11.8138 51.6043ZM16.0757 44.7163C15.8917 44.7163 15.7557 44.6523 15.6677 44.5243C15.5797 44.3963 15.5357 44.2443 15.5357 44.0683C15.5357 43.8843 15.5797 43.7283 15.6677 43.6003C15.7557 43.4723 15.8917 43.4083 16.0757 43.4083H19.6877C20.0717 43.4083 20.3357 43.4803 20.4797 43.6243C20.6317 43.7683 20.7077 44.0283 20.7077 44.4043V45.7363C20.7077 46.0723 20.6877 46.3763 20.6477 46.6483C20.6077 46.9203 20.5317 47.1803 20.4197 47.4283C20.3157 47.6683 20.1677 47.9043 19.9757 48.1363C19.7837 48.3683 19.5317 48.6123 19.2197 48.8683C18.9077 49.1243 18.5277 49.4003 18.0797 49.6963C17.6397 49.9923 17.1157 50.3243 16.5077 50.6923C16.3397 50.7963 16.1637 50.8163 15.9797 50.7523C15.8037 50.6803 15.6677 50.5723 15.5717 50.4283C15.4757 50.2843 15.4277 50.1163 15.4277 49.9243C15.4277 49.7323 15.5157 49.5803 15.6917 49.4683C16.2357 49.1403 16.6997 48.8523 17.0837 48.6043C17.4757 48.3483 17.7997 48.1203 18.0557 47.9203C18.3197 47.7203 18.5237 47.5363 18.6677 47.3683C18.8197 47.2003 18.9317 47.0323 19.0037 46.8643C19.0837 46.6883 19.1317 46.5083 19.1477 46.3243C19.1717 46.1403 19.1837 45.9283 19.1837 45.6883V44.9923C19.1837 44.8083 19.0917 44.7163 18.9077 44.7163H16.0757ZM24.1517 52.4323C24.1517 52.6563 24.0717 52.8203 23.9117 52.9243C23.7597 53.0283 23.5797 53.0803 23.3717 53.0803C23.1717 53.0803 22.9917 53.0283 22.8317 52.9243C22.6797 52.8203 22.6037 52.6563 22.6037 52.4323V43.2403C22.6037 43.0163 22.6797 42.8523 22.8317 42.7483C22.9917 42.6443 23.1717 42.5923 23.3717 42.5923C23.5797 42.5923 23.7597 42.6443 23.9117 42.7483C24.0717 42.8523 24.1517 43.0163 24.1517 43.2403V52.4323ZM30.1056 44.5003V44.9203C30.1056 45.2883 30.1616 45.5963 30.2736 45.8443C30.3856 46.0923 30.5696 46.3243 30.8256 46.5403C31.0896 46.7563 31.3336 46.9523 31.5576 47.1283C31.7896 47.2963 31.9856 47.4403 32.1456 47.5603C32.3136 47.6883 32.4016 47.8363 32.4096 48.0043C32.4176 48.1723 32.3656 48.3323 32.2536 48.4843C32.2056 48.5483 32.1456 48.6083 32.0736 48.6643C32.0096 48.7123 31.9376 48.7483 31.8576 48.7723C31.7776 48.7963 31.6896 48.8043 31.5936 48.7963C31.5056 48.7803 31.4136 48.7403 31.3176 48.6763C31.1896 48.5883 31.0256 48.4683 30.8256 48.3163C30.6256 48.1563 30.4056 47.9803 30.1656 47.7883C29.8776 47.5563 29.6776 47.3763 29.5656 47.2483C29.4616 47.1203 29.3936 47.0003 29.3616 46.8883H29.3496C29.3176 47.0243 29.2416 47.1643 29.1216 47.3083C29.0016 47.4523 28.7976 47.6403 28.5096 47.8723C28.2696 48.0643 28.0376 48.2443 27.8136 48.4123C27.5976 48.5803 27.3736 48.7443 27.1416 48.9043C26.9656 49.0323 26.7896 49.0643 26.6136 49.0003C26.4376 48.9283 26.3056 48.8283 26.2176 48.7003C26.1136 48.5563 26.0616 48.3963 26.0616 48.2203C26.0616 48.0363 26.1536 47.8763 26.3376 47.7403C26.5936 47.5563 26.8416 47.3723 27.0816 47.1883C27.3296 47.0043 27.5856 46.8043 27.8496 46.5883C28.1056 46.3723 28.2896 46.1403 28.4016 45.8923C28.5136 45.6443 28.5696 45.3363 28.5696 44.9683V44.5003H26.8056C26.6216 44.5003 26.4856 44.4363 26.3976 44.3083C26.3096 44.1803 26.2656 44.0283 26.2656 43.8523C26.2656 43.6763 26.3096 43.5243 26.3976 43.3963C26.4856 43.2683 26.6216 43.2043 26.8056 43.2043H31.7496C31.9336 43.2043 32.0696 43.2683 32.1576 43.3963C32.2456 43.5243 32.2896 43.6763 32.2896 43.8523C32.2896 44.0283 32.2456 44.1803 32.1576 44.3083C32.0696 44.4363 31.9336 44.5003 31.7496 44.5003H30.1056ZM33.6216 46.5523H32.2176C32.0336 46.5523 31.8976 46.4883 31.8096 46.3603C31.7216 46.2323 31.6776 46.0803 31.6776 45.9043C31.6776 45.7203 31.7216 45.5643 31.8096 45.4363C31.8976 45.3083 32.0336 45.2443 32.2176 45.2443H33.6216V43.2403C33.6216 43.0163 33.6976 42.8523 33.8496 42.7483C34.0096 42.6443 34.1896 42.5923 34.3896 42.5923C34.5816 42.5923 34.7536 42.6443 34.9056 42.7483C35.0656 42.8523 35.1456 43.0163 35.1456 43.2403V48.5563C35.1456 48.7803 35.0656 48.9443 34.9056 49.0483C34.7536 49.1523 34.5816 49.2043 34.3896 49.2043C34.1896 49.2043 34.0096 49.1523 33.8496 49.0483C33.6976 48.9443 33.6216 48.7803 33.6216 48.5563V46.5523ZM27.9336 51.6043C27.9336 50.8283 28.2536 50.2483 28.8936 49.8643C29.5416 49.4723 30.4296 49.2763 31.5576 49.2763C32.6856 49.2763 33.5696 49.4723 34.2096 49.8643C34.8576 50.2483 35.1816 50.8283 35.1816 51.6043C35.1816 52.3883 34.8576 52.9723 34.2096 53.3563C33.5696 53.7403 32.6856 53.9323 31.5576 53.9323C30.4296 53.9323 29.5416 53.7403 28.8936 53.3563C28.2536 52.9723 27.9336 52.3883 27.9336 51.6043ZM33.6576 51.6043C33.6576 51.2763 33.4936 51.0123 33.1656 50.8123C32.8456 50.6043 32.3096 50.5003 31.5576 50.5003C30.7976 50.5003 30.2576 50.6043 29.9376 50.8123C29.6176 51.0123 29.4576 51.2763 29.4576 51.6043C29.4576 51.9323 29.6176 52.1963 29.9376 52.3963C30.2576 52.6043 30.7976 52.7083 31.5576 52.7083C32.3096 52.7083 32.8456 52.6043 33.1656 52.3963C33.4936 52.1963 33.6576 51.9323 33.6576 51.6043ZM39.1194 48.8923C38.7354 48.8923 38.4674 48.8203 38.3154 48.6763C38.1714 48.5323 38.0994 48.2723 38.0994 47.8963V43.7443C38.0994 43.5283 38.1794 43.3683 38.3394 43.2643C38.4994 43.1523 38.6754 43.0963 38.8674 43.0963C39.0594 43.0963 39.2354 43.1523 39.3954 43.2643C39.5554 43.3683 39.6354 43.5283 39.6354 43.7443V44.9083H44.1234V43.7443C44.1234 43.5283 44.2034 43.3683 44.3634 43.2643C44.5234 43.1523 44.6994 43.0963 44.8914 43.0963C45.0834 43.0963 45.2594 43.1523 45.4194 43.2643C45.5794 43.3683 45.6594 43.5283 45.6594 43.7443V47.8963C45.6594 48.2723 45.5834 48.5323 45.4314 48.6763C45.2874 48.8203 45.0234 48.8923 44.6394 48.8923H39.1194ZM43.8474 47.6083C44.0314 47.6083 44.1234 47.5163 44.1234 47.3323V46.1923H39.6354V47.3323C39.6354 47.5163 39.7274 47.6083 39.9114 47.6083H43.8474ZM37.3434 52.0963C37.1594 52.0963 37.0234 52.0323 36.9354 51.9043C36.8474 51.7763 36.8034 51.6243 36.8034 51.4483C36.8034 51.2723 36.8474 51.1203 36.9354 50.9923C37.0234 50.8643 37.1594 50.8003 37.3434 50.8003H41.1114V48.1603H42.6474V50.8003H46.4154C46.5994 50.8003 46.7354 50.8643 46.8234 50.9923C46.9114 51.1203 46.9554 51.2723 46.9554 51.4483C46.9554 51.6243 46.9114 51.7763 46.8234 51.9043C46.7354 52.0323 46.5994 52.0963 46.4154 52.0963H37.3434Z" fill="#EA2F3E"/>
</svg>
