<svg width="51" height="55" viewBox="0 0 51 55" fill="none" xmlns="http://www.w3.org/2000/svg">
<path d="M37.4368 17.9972C37.4368 24.5913 32.0915 29.9365 25.4974 29.9365C18.9033 29.9365 13.5581 24.5913 13.5581 17.9972C13.5581 11.4031 18.9033 6.05786 25.4974 6.05786C32.0915 6.05786 37.4368 11.4031 37.4368 17.9972Z" stroke="#AAABAC" stroke-width="2.56611" stroke-linecap="round" stroke-linejoin="round"/>
<path d="M25.4974 29.9365C25.4974 29.7136 25.4915 29.4928 25.4795 29.2739M13.5581 17.9972C13.8041 17.9972 14.0484 18.0044 14.2912 18.0187M17.5458 18.6789C17.9454 18.8214 18.3346 18.9834 18.7135 19.1649M21.5407 21.0572C21.8512 21.3366 22.1461 21.6315 22.4254 21.9419M24.3536 24.8301C24.5192 25.1811 24.6684 25.5413 24.8014 25.9106M25.4974 6.05786C25.4974 6.28073 25.5034 6.50161 25.5153 6.72049M37.4368 17.9972C37.1916 17.9972 36.9472 17.99 36.7037 17.9757M33.449 17.3155C33.0515 17.1742 32.6617 17.012 32.2814 16.8295M29.4541 14.9371C29.1437 14.6578 28.8488 14.3629 28.5694 14.0524M26.6412 11.1643C26.4744 10.8117 26.325 10.4511 26.1935 10.0838" stroke="#AAABAC" stroke-width="2.56611" stroke-linecap="round" stroke-linejoin="round"/>
<path d="M8.58581 43.3421C8.89781 43.3421 9.11381 43.4021 9.23381 43.5221C9.35381 43.6341 9.41381 43.8421 9.41381 44.1461V45.0341C9.41381 45.4821 9.36181 45.8581 9.25781 46.1621C9.16181 46.4581 8.96181 46.7381 8.65781 47.0021C8.36181 47.2661 7.93381 47.5461 7.37381 47.8421C6.82181 48.1301 6.09381 48.4901 5.18981 48.9221C5.09381 48.9621 4.99381 48.9661 4.88981 48.9341C4.79381 48.8941 4.72181 48.8221 4.67381 48.7181C4.62581 48.6301 4.60581 48.5341 4.61381 48.4301C4.62981 48.3181 4.69381 48.2381 4.80581 48.1901C5.37381 47.9261 5.85781 47.6941 6.25781 47.4941C6.66581 47.2941 7.00981 47.1141 7.28981 46.9541C7.56981 46.7941 7.78981 46.6461 7.94981 46.5101C8.11781 46.3661 8.24581 46.2181 8.33381 46.0661C8.42181 45.9141 8.47781 45.7541 8.50181 45.5861C8.53381 45.4181 8.54981 45.2221 8.54981 44.9981V44.3261C8.54981 44.1741 8.47381 44.0981 8.32181 44.0981H5.04581C4.93381 44.0981 4.85381 44.0621 4.80581 43.9901C4.75781 43.9181 4.73381 43.8301 4.73381 43.7261C4.73381 43.6141 4.75781 43.5221 4.80581 43.4501C4.85381 43.3781 4.93381 43.3421 5.04581 43.3421H8.58581ZM12.6538 42.7061C12.7658 42.7061 12.8658 42.7341 12.9538 42.7901C13.0418 42.8461 13.0858 42.9381 13.0858 43.0661V48.9101C13.0858 49.0381 13.0418 49.1301 12.9538 49.1861C12.8658 49.2421 12.7658 49.2701 12.6538 49.2701C12.5418 49.2701 12.4418 49.2421 12.3538 49.1861C12.2658 49.1301 12.2218 49.0381 12.2218 48.9101V47.4461H10.2418C10.1298 47.4461 10.0498 47.4101 10.0018 47.3381C9.95381 47.2661 9.92981 47.1741 9.92981 47.0621C9.92981 46.9581 9.95381 46.8701 10.0018 46.7981C10.0498 46.7261 10.1298 46.6901 10.2418 46.6901H12.2218V45.2381H10.3378C10.2258 45.2381 10.1458 45.2021 10.0978 45.1301C10.0498 45.0581 10.0258 44.9661 10.0258 44.8541C10.0258 44.7501 10.0498 44.6621 10.0978 44.5901C10.1458 44.5181 10.2258 44.4821 10.3378 44.4821H12.2218V43.0661C12.2218 42.9381 12.2658 42.8461 12.3538 42.7901C12.4418 42.7341 12.5418 42.7061 12.6538 42.7061ZM9.74981 49.4141C10.8458 49.4141 11.6898 49.6021 12.2818 49.9781C12.8738 50.3461 13.1698 50.8901 13.1698 51.6101C13.1698 52.3301 12.8738 52.8741 12.2818 53.2421C11.6898 53.6181 10.8458 53.8061 9.74981 53.8061C8.65381 53.8061 7.80981 53.6181 7.21781 53.2421C6.63381 52.8741 6.34181 52.3301 6.34181 51.6101C6.34181 50.8901 6.63381 50.3461 7.21781 49.9781C7.80981 49.6021 8.65381 49.4141 9.74981 49.4141ZM9.74981 50.1341C8.87781 50.1341 8.23381 50.2661 7.81781 50.5301C7.40981 50.7941 7.20581 51.1541 7.20581 51.6101C7.20581 52.0661 7.40981 52.4261 7.81781 52.6901C8.23381 52.9541 8.87781 53.0861 9.74981 53.0861C10.6218 53.0861 11.2658 52.9541 11.6818 52.6901C12.0978 52.4261 12.3058 52.0661 12.3058 51.6101C12.3058 51.1541 12.0978 50.7941 11.6818 50.5301C11.2658 50.2661 10.6218 50.1341 9.74981 50.1341ZM19.7237 43.5461C20.0357 43.5461 20.2517 43.6061 20.3717 43.7261C20.4917 43.8381 20.5517 44.0461 20.5517 44.3501V45.7061C20.5517 46.0421 20.5317 46.3421 20.4917 46.6061C20.4517 46.8701 20.3717 47.1221 20.2517 47.3621C20.1397 47.5941 19.9797 47.8221 19.7717 48.0461C19.5717 48.2701 19.3117 48.5101 18.9917 48.7661C18.6717 49.0141 18.2837 49.2861 17.8277 49.5821C17.3717 49.8781 16.8357 50.2181 16.2197 50.6021C16.1317 50.6581 16.0357 50.6701 15.9317 50.6381C15.8357 50.6061 15.7557 50.5461 15.6917 50.4581C15.6277 50.3701 15.5997 50.2701 15.6077 50.1581C15.6157 50.0461 15.6677 49.9581 15.7637 49.8941C16.6357 49.3661 17.3317 48.9261 17.8517 48.5741C18.3717 48.2221 18.7677 47.9021 19.0397 47.6141C19.3117 47.3181 19.4877 47.0261 19.5677 46.7381C19.6477 46.4421 19.6877 46.0861 19.6877 45.6701V44.5301C19.6877 44.3861 19.6117 44.3141 19.4597 44.3141H16.0397C15.9277 44.3141 15.8477 44.2781 15.7997 44.2061C15.7517 44.1261 15.7277 44.0341 15.7277 43.9301C15.7277 43.8261 15.7517 43.7381 15.7997 43.6661C15.8477 43.5861 15.9277 43.5461 16.0397 43.5461H19.7237ZM23.4917 42.7061C23.6037 42.7061 23.7037 42.7341 23.7917 42.7901C23.8877 42.8461 23.9357 42.9381 23.9357 43.0661V52.6181C23.9357 52.7461 23.8877 52.8381 23.7917 52.8941C23.7037 52.9501 23.6037 52.9781 23.4917 52.9781C23.3797 52.9781 23.2797 52.9501 23.1917 52.8941C23.1037 52.8381 23.0597 52.7461 23.0597 52.6181V43.0661C23.0597 42.9381 23.1037 42.8461 23.1917 42.7901C23.2797 42.7341 23.3797 42.7061 23.4917 42.7061ZM32.0016 43.3541C32.1056 43.3541 32.1816 43.3901 32.2296 43.4621C32.2776 43.5341 32.3016 43.6221 32.3016 43.7261C32.3016 43.8381 32.2776 43.9301 32.2296 44.0021C32.1816 44.0741 32.1056 44.1101 32.0016 44.1101H29.8296V44.9621C29.8296 45.3781 29.8936 45.7261 30.0216 46.0061C30.1496 46.2781 30.3656 46.5381 30.6696 46.7861C30.9736 47.0181 31.2576 47.2341 31.5216 47.4341C31.7936 47.6341 32.0216 47.8021 32.2056 47.9381C32.3096 48.0181 32.3656 48.1101 32.3736 48.2141C32.3816 48.3101 32.3536 48.4021 32.2896 48.4901C32.2336 48.5701 32.1576 48.6261 32.0616 48.6581C31.9656 48.6901 31.8616 48.6661 31.7496 48.5861C31.6056 48.4901 31.4056 48.3461 31.1496 48.1541C30.8936 47.9621 30.6256 47.7581 30.3456 47.5421C30.0336 47.2861 29.8056 47.0741 29.6616 46.9061C29.5176 46.7301 29.4296 46.5781 29.3976 46.4501H29.3856C29.3536 46.5861 29.2656 46.7421 29.1216 46.9181C28.9776 47.0941 28.7456 47.3101 28.4256 47.5661C28.1456 47.7901 27.8656 48.0061 27.5856 48.2141C27.3136 48.4141 27.0616 48.5941 26.8296 48.7541C26.7256 48.8261 26.6256 48.8461 26.5296 48.8141C26.4336 48.7821 26.3536 48.7261 26.2896 48.6461C26.2256 48.5581 26.1936 48.4621 26.1936 48.3581C26.2016 48.2541 26.2616 48.1661 26.3736 48.0941C26.6616 47.8861 26.9456 47.6781 27.2256 47.4701C27.5056 47.2621 27.7976 47.0381 28.1016 46.7981C28.4056 46.5501 28.6216 46.2901 28.7496 46.0181C28.8776 45.7381 28.9416 45.3941 28.9416 44.9861V44.1101H26.6976C26.5936 44.1101 26.5176 44.0741 26.4696 44.0021C26.4216 43.9301 26.3976 43.8381 26.3976 43.7261C26.3976 43.6221 26.4216 43.5341 26.4696 43.4621C26.5176 43.3901 26.5936 43.3541 26.6976 43.3541H32.0016ZM34.4976 42.7061C34.6096 42.7061 34.7096 42.7341 34.7976 42.7901C34.8856 42.8461 34.9296 42.9381 34.9296 43.0661V48.9101C34.9296 49.0381 34.8856 49.1301 34.7976 49.1861C34.7096 49.2421 34.6096 49.2701 34.4976 49.2701C34.3856 49.2701 34.2856 49.2421 34.1976 49.1861C34.1096 49.1301 34.0656 49.0381 34.0656 48.9101V46.2941H32.0136C31.9096 46.2941 31.8336 46.2581 31.7856 46.1861C31.7376 46.1141 31.7136 46.0221 31.7136 45.9101C31.7136 45.8061 31.7376 45.7181 31.7856 45.6461C31.8336 45.5661 31.9096 45.5261 32.0136 45.5261H34.0656V43.0661C34.0656 42.9381 34.1096 42.8461 34.1976 42.7901C34.2856 42.7341 34.3856 42.7061 34.4976 42.7061ZM31.5936 49.4141C32.6896 49.4141 33.5336 49.6021 34.1256 49.9781C34.7176 50.3461 35.0136 50.8901 35.0136 51.6101C35.0136 52.3301 34.7176 52.8741 34.1256 53.2421C33.5336 53.6181 32.6896 53.8061 31.5936 53.8061C30.4976 53.8061 29.6536 53.6181 29.0616 53.2421C28.4776 52.8741 28.1856 52.3301 28.1856 51.6101C28.1856 50.8901 28.4776 50.3461 29.0616 49.9781C29.6536 49.6021 30.4976 49.4141 31.5936 49.4141ZM31.5936 50.1341C30.7216 50.1341 30.0776 50.2661 29.6616 50.5301C29.2536 50.7941 29.0496 51.1541 29.0496 51.6101C29.0496 52.0661 29.2536 52.4261 29.6616 52.6901C30.0776 52.9541 30.7216 53.0861 31.5936 53.0861C32.4656 53.0861 33.1096 52.9541 33.5256 52.6901C33.9416 52.4261 34.1496 52.0661 34.1496 51.6101C34.1496 51.1541 33.9416 50.7941 33.5256 50.5301C33.1096 50.2661 32.4656 50.1341 31.5936 50.1341ZM38.7354 43.2341C38.8474 43.2341 38.9474 43.2621 39.0354 43.3181C39.1234 43.3741 39.1674 43.4661 39.1674 43.5941V45.2621H44.5914V43.5941C44.5914 43.4661 44.6354 43.3741 44.7234 43.3181C44.8114 43.2621 44.9114 43.2341 45.0234 43.2341C45.1354 43.2341 45.2354 43.2621 45.3234 43.3181C45.4114 43.3741 45.4554 43.4661 45.4554 43.5941V47.9021C45.4554 48.2061 45.3954 48.4181 45.2754 48.5381C45.1554 48.6501 44.9394 48.7061 44.6274 48.7061H39.1314C38.8194 48.7061 38.6034 48.6501 38.4834 48.5381C38.3634 48.4181 38.3034 48.2061 38.3034 47.9021V43.5941C38.3034 43.4661 38.3474 43.3741 38.4354 43.3181C38.5234 43.2621 38.6234 43.2341 38.7354 43.2341ZM39.1674 47.7341C39.1674 47.8781 39.2434 47.9501 39.3954 47.9501H44.3634C44.5154 47.9501 44.5914 47.8781 44.5914 47.7341V46.0181H39.1674V47.7341ZM42.3234 51.1061H46.5714C46.6834 51.1061 46.7634 51.1421 46.8114 51.2141C46.8594 51.2861 46.8834 51.3781 46.8834 51.4901C46.8834 51.5941 46.8594 51.6821 46.8114 51.7541C46.7634 51.8261 46.6834 51.8621 46.5714 51.8621H37.1874C37.0754 51.8621 36.9954 51.8261 36.9474 51.7541C36.8994 51.6821 36.8754 51.5941 36.8754 51.4901C36.8754 51.3781 36.8994 51.2861 36.9474 51.2141C36.9954 51.1421 37.0754 51.1061 37.1874 51.1061H41.4474V48.1661H42.3234V51.1061Z" fill="#AAABAC"/>
</svg>
