<svg width="36" height="55" viewBox="0 0 36 55" fill="none" xmlns="http://www.w3.org/2000/svg">
<mask id="path-1-inside-1_166_2675" fill="white">
<path d="M28.2789 15.4298C28.2789 15.0895 28.1437 14.7632 27.9031 14.5226C27.6625 14.2819 27.3361 14.1468 26.9958 14.1468C26.6555 14.1468 26.3292 14.2819 26.0886 14.5226C25.848 14.7632 25.7128 15.0895 25.7128 15.4298H28.2789ZM10.3161 15.4298C10.3161 15.0895 10.1809 14.7632 9.94029 14.5226C9.69967 14.2819 9.37332 14.1468 9.03303 14.1468C8.69274 14.1468 8.36639 14.2819 8.12577 14.5226C7.88515 14.7632 7.74997 15.0895 7.74997 15.4298H10.3161ZM28.6548 18.9031C28.8968 19.1368 29.2209 19.2661 29.5573 19.2632C29.8937 19.2603 30.2155 19.1254 30.4534 18.8875C30.6913 18.6496 30.8263 18.3278 30.8292 17.9913C30.8321 17.6549 30.7028 17.3308 30.4691 17.0888L28.6548 18.9031ZM18.0144 6.44832L18.9216 5.54119C18.6809 5.30065 18.3547 5.16553 18.0144 5.16553C17.6742 5.16553 17.3479 5.30065 17.1073 5.54119L18.0144 6.44832ZM5.55979 17.0888C5.43725 17.2072 5.3395 17.3488 5.27226 17.5053C5.20501 17.6619 5.16962 17.8302 5.16814 18.0006C5.16666 18.1709 5.19912 18.3399 5.26364 18.4976C5.32815 18.6553 5.42342 18.7985 5.54389 18.919C5.66436 19.0395 5.80762 19.1347 5.9653 19.1993C6.12298 19.2638 6.29193 19.2962 6.4623 19.2948C6.63266 19.2933 6.80102 19.2579 6.95756 19.1906C7.1141 19.1234 7.25568 19.0256 7.37404 18.9031L5.55979 17.0888ZM11.5991 30.8267H24.4297V28.2605H11.5991V30.8267ZM28.2789 26.9775V15.4298H25.7128V26.9775H28.2789ZM10.3161 26.9775V15.4298H7.74997V26.9775H10.3161ZM30.4691 17.0888L18.9216 5.54119L17.1073 7.35546L28.6548 18.9031L30.4691 17.0888ZM17.1073 5.54119L5.55979 17.0888L7.37404 18.9031L18.9216 7.35546L17.1073 5.54119ZM24.4297 30.8267C25.4506 30.8267 26.4296 30.4211 27.1515 29.6993C27.8734 28.9774 28.2789 27.9983 28.2789 26.9775H25.7128C25.7128 27.3178 25.5776 27.6441 25.337 27.8847C25.0964 28.1254 24.77 28.2605 24.4297 28.2605V30.8267ZM11.5991 28.2605C11.2589 28.2605 10.9325 28.1254 10.6919 27.8847C10.4513 27.6441 10.3161 27.3178 10.3161 26.9775H7.74997C7.74997 27.9983 8.15551 28.9774 8.87737 29.6993C9.59923 30.4211 10.5783 30.8267 11.5991 30.8267V28.2605Z"/>
</mask>
<path d="M28.2789 15.4298C28.2789 15.0895 28.1437 14.7632 27.9031 14.5226C27.6625 14.2819 27.3361 14.1468 26.9958 14.1468C26.6555 14.1468 26.3292 14.2819 26.0886 14.5226C25.848 14.7632 25.7128 15.0895 25.7128 15.4298H28.2789ZM10.3161 15.4298C10.3161 15.0895 10.1809 14.7632 9.94029 14.5226C9.69967 14.2819 9.37332 14.1468 9.03303 14.1468C8.69274 14.1468 8.36639 14.2819 8.12577 14.5226C7.88515 14.7632 7.74997 15.0895 7.74997 15.4298H10.3161ZM28.6548 18.9031C28.8968 19.1368 29.2209 19.2661 29.5573 19.2632C29.8937 19.2603 30.2155 19.1254 30.4534 18.8875C30.6913 18.6496 30.8263 18.3278 30.8292 17.9913C30.8321 17.6549 30.7028 17.3308 30.4691 17.0888L28.6548 18.9031ZM18.0144 6.44832L18.9216 5.54119C18.6809 5.30065 18.3547 5.16553 18.0144 5.16553C17.6742 5.16553 17.3479 5.30065 17.1073 5.54119L18.0144 6.44832ZM5.55979 17.0888C5.43725 17.2072 5.3395 17.3488 5.27226 17.5053C5.20501 17.6619 5.16962 17.8302 5.16814 18.0006C5.16666 18.1709 5.19912 18.3399 5.26364 18.4976C5.32815 18.6553 5.42342 18.7985 5.54389 18.919C5.66436 19.0395 5.80762 19.1347 5.9653 19.1993C6.12298 19.2638 6.29193 19.2962 6.4623 19.2948C6.63266 19.2933 6.80102 19.2579 6.95756 19.1906C7.1141 19.1234 7.25568 19.0256 7.37404 18.9031L5.55979 17.0888ZM11.5991 30.8267H24.4297V28.2605H11.5991V30.8267ZM28.2789 26.9775V15.4298H25.7128V26.9775H28.2789ZM10.3161 26.9775V15.4298H7.74997V26.9775H10.3161ZM30.4691 17.0888L18.9216 5.54119L17.1073 7.35546L28.6548 18.9031L30.4691 17.0888ZM17.1073 5.54119L5.55979 17.0888L7.37404 18.9031L18.9216 7.35546L17.1073 5.54119ZM24.4297 30.8267C25.4506 30.8267 26.4296 30.4211 27.1515 29.6993C27.8734 28.9774 28.2789 27.9983 28.2789 26.9775H25.7128C25.7128 27.3178 25.5776 27.6441 25.337 27.8847C25.0964 28.1254 24.77 28.2605 24.4297 28.2605V30.8267ZM11.5991 28.2605C11.2589 28.2605 10.9325 28.1254 10.6919 27.8847C10.4513 27.6441 10.3161 27.3178 10.3161 26.9775H7.74997C7.74997 27.9983 8.15551 28.9774 8.87737 29.6993C9.59923 30.4211 10.5783 30.8267 11.5991 30.8267V28.2605Z" fill="#EA2F3E"/>
<path d="M25.7128 17.5683H28.2789V13.2914H25.7128V17.5683ZM7.74997 17.5683H10.3161V13.2914H7.74997V17.5683ZM28.957 15.5767L27.1427 17.391L30.1669 20.4152L31.9812 18.6009L28.957 15.5767ZM8.88614 17.391L7.0719 15.5767L4.04769 18.6009L5.86193 20.4152L8.88614 17.391ZM26.5681 30.8267V28.2605H22.2913V30.8267H26.5681ZM9.46071 28.2605V30.8267H13.7376V28.2605H9.46071ZM25.7128 29.1159H28.2789V24.839H25.7128V29.1159ZM7.74997 29.1159H10.3161V24.839H7.74997V29.1159ZM7.74997 15.4298H3.47311H7.74997ZM28.6548 18.9031L25.6306 21.9273L25.6569 21.9536L25.6836 21.9794L28.6548 18.9031ZM30.4691 17.0888L33.5454 14.1177L33.5196 14.0909L33.4933 14.0647L30.4691 17.0888ZM18.0144 6.44832L14.9902 9.4725L18.0144 12.4967L21.0386 9.4725L18.0144 6.44832ZM18.9216 5.54119L21.9458 2.51701L21.9453 2.51656L18.9216 5.54119ZM17.1073 5.54119L14.0836 2.51656L14.0831 2.51701L17.1073 5.54119ZM5.55979 17.0888L8.53099 20.1651L8.55773 20.1393L8.584 20.113L5.55979 17.0888ZM7.37404 18.9031L4.34982 15.8789L4.32355 15.9052L4.29773 15.9319L7.37404 18.9031ZM11.5991 30.8267V35.1035V30.8267ZM24.4297 30.8267V35.1035V30.8267ZM28.2789 26.9775H32.5557H28.2789ZM17.1073 7.35546L14.0831 4.33128L11.059 7.35546L14.0831 10.3796L17.1073 7.35546ZM18.9216 7.35546L21.9458 10.3796L24.9699 7.35546L21.9458 4.33128L18.9216 7.35546ZM32.5557 15.4298C32.5557 13.9553 31.97 12.5411 30.9273 11.4984L24.8789 17.5467C24.3174 16.9853 24.002 16.2238 24.002 15.4298H32.5557ZM30.9273 11.4984C29.8846 10.4557 28.4704 9.86989 26.9958 9.86989V18.4236C26.2018 18.4236 25.4403 18.1082 24.8789 17.5467L30.9273 11.4984ZM26.9958 9.86989C25.5212 9.86989 24.107 10.4557 23.0644 11.4984L29.1128 17.5467C28.5513 18.1082 27.7899 18.4236 26.9958 18.4236V9.86989ZM23.0644 11.4984C22.0217 12.5411 21.4359 13.9553 21.4359 15.4298H29.9896C29.9896 16.2238 29.6742 16.9853 29.1128 17.5467L23.0644 11.4984ZM14.5929 15.4298C14.5929 13.9552 14.0072 12.5411 12.9645 11.4984L6.91608 17.5467C6.35464 16.9853 6.03923 16.2238 6.03923 15.4298H14.5929ZM12.9645 11.4984C11.9218 10.4557 10.5076 9.86989 9.03303 9.86989V18.4236C8.23901 18.4236 7.47752 18.1082 6.91608 17.5467L12.9645 11.4984ZM9.03303 9.86989C7.55843 9.86989 6.14424 10.4557 5.10156 11.4984L11.15 17.5467C10.5885 18.1082 9.82705 18.4236 9.03303 18.4236V9.86989ZM5.10156 11.4984C4.05888 12.5411 3.47311 13.9552 3.47311 15.4298H12.0268C12.0268 16.2238 11.7114 16.9853 11.15 17.5467L5.10156 11.4984ZM25.6836 21.9794C26.7322 22.9922 28.1367 23.5526 29.5945 23.5399L29.5202 14.9865C30.3051 14.9797 31.0614 15.2815 31.626 15.8268L25.6836 21.9794ZM29.5945 23.5399C31.0523 23.5272 32.4468 22.9425 33.4777 21.9116L27.4292 15.8633C27.9843 15.3082 28.7352 14.9933 29.5202 14.9865L29.5945 23.5399ZM33.4777 21.9116C34.5085 20.8808 35.0932 19.4863 35.1059 18.0285L26.5525 17.9542C26.5593 17.1692 26.8742 16.4184 27.4292 15.8633L33.4777 21.9116ZM35.1059 18.0285C35.1186 16.5707 34.5582 15.1663 33.5454 14.1177L27.3928 20.06C26.8474 19.4954 26.5457 18.7391 26.5525 17.9542L35.1059 18.0285ZM21.0386 9.4725L21.9458 8.56537L15.8973 2.51701L14.9902 3.42415L21.0386 9.4725ZM21.9453 2.51656C20.9027 1.47423 19.4887 0.888669 18.0144 0.888669V9.44239C17.2206 9.44239 16.4592 9.12708 15.8978 8.56583L21.9453 2.51656ZM18.0144 0.888669C16.5401 0.888669 15.1262 1.47423 14.0836 2.51656L20.1311 8.56583C19.5696 9.12708 18.8083 9.44239 18.0144 9.44239V0.888669ZM14.0831 8.56537L14.9902 9.4725L21.0386 3.42415L20.1315 2.51701L14.0831 8.56537ZM2.58859 14.0126C2.05757 14.5254 1.634 15.139 1.34262 15.8173L9.2019 19.1933C9.045 19.5586 8.81693 19.8889 8.53099 20.1651L2.58859 14.0126ZM1.34262 15.8173C1.05123 16.4956 0.897858 17.2252 0.891443 17.9634L9.44484 18.0377C9.44138 18.4353 9.3588 18.8281 9.2019 19.1933L1.34262 15.8173ZM0.891443 17.9634C0.885028 18.7017 1.0257 19.4338 1.30525 20.1171L9.22202 16.8781C9.37254 17.246 9.44829 17.6402 9.44484 18.0377L0.891443 17.9634ZM1.30525 20.1171C1.58481 20.8004 1.99765 21.4211 2.51968 21.9432L8.5681 15.8948C8.84919 16.1759 9.07149 16.5102 9.22202 16.8781L1.30525 20.1171ZM2.51968 21.9432C3.04171 22.4652 3.66249 22.8781 4.34578 23.1576L7.58481 15.2409C7.95274 15.3914 8.28701 15.6137 8.5681 15.8948L2.51968 21.9432ZM4.34578 23.1576C5.02907 23.4372 5.7612 23.5779 6.49946 23.5714L6.42513 15.0181C6.82267 15.0146 7.2169 15.0904 7.58481 15.2409L4.34578 23.1576ZM6.49946 23.5714C7.23771 23.565 7.96729 23.4117 8.64562 23.1203L5.2695 15.261C5.63476 15.1041 6.02761 15.0215 6.42513 15.0181L6.49946 23.5714ZM8.64562 23.1203C9.32397 22.8289 9.93747 22.4053 10.4503 21.8743L4.29773 15.9319C4.57388 15.646 4.90423 15.4179 5.2695 15.261L8.64562 23.1203ZM11.5991 35.1035H24.4297V26.5498H11.5991V35.1035ZM24.4297 23.9837H11.5991V32.5374H24.4297V23.9837ZM32.5557 26.9775V15.4298H24.002V26.9775H32.5557ZM21.4359 15.4298V26.9775H29.9896V15.4298H21.4359ZM14.5929 26.9775V15.4298H6.03923V26.9775H14.5929ZM3.47311 15.4298V26.9775H12.0268V15.4298H3.47311ZM33.4933 14.0647L21.9458 2.51701L15.8973 8.56537L27.4449 20.113L33.4933 14.0647ZM15.8973 2.51701L14.0831 4.33128L20.1315 10.3796L21.9458 8.56537L15.8973 2.51701ZM14.0831 10.3796L25.6306 21.9273L31.679 15.8789L20.1315 4.33128L14.0831 10.3796ZM14.0831 2.51701L2.53558 14.0647L8.584 20.113L20.1315 8.56537L14.0831 2.51701ZM10.3982 21.9273L21.9458 10.3796L15.8973 4.33128L4.34982 15.8789L10.3982 21.9273ZM21.9458 4.33128L20.1315 2.51701L14.0831 8.56537L15.8973 10.3796L21.9458 4.33128ZM24.4297 35.1035C26.5849 35.1035 28.6518 34.2474 30.1757 32.7234L24.1273 26.6751C24.2075 26.5949 24.3163 26.5498 24.4297 26.5498V35.1035ZM30.1757 32.7234C31.6996 31.1995 32.5557 29.1326 32.5557 26.9775H24.002C24.002 26.8641 24.0471 26.7553 24.1273 26.6751L30.1757 32.7234ZM21.4359 26.9775C21.4359 26.1835 21.7513 25.422 22.3128 24.8606L28.3612 30.9089C29.4039 29.8662 29.9896 28.452 29.9896 26.9775H21.4359ZM22.3128 24.8606C22.8742 24.2991 23.6357 23.9837 24.4297 23.9837V32.5374C25.9043 32.5374 27.3185 31.9516 28.3612 30.9089L22.3128 24.8606ZM11.5991 23.9837C12.3932 23.9837 13.1546 24.2991 13.7161 24.8606L7.66767 30.9089C8.71036 31.9516 10.1246 32.5374 11.5991 32.5374V23.9837ZM13.7161 24.8606C14.2775 25.422 14.5929 26.1835 14.5929 26.9775H6.03923C6.03923 28.452 6.62499 29.8662 7.66767 30.9089L13.7161 24.8606ZM3.47311 26.9775C3.47311 29.1326 4.32924 31.1995 5.85316 32.7234L11.9016 26.6751C11.9818 26.7553 12.0268 26.8641 12.0268 26.9775H3.47311ZM5.85316 32.7234C7.37708 34.2474 9.44397 35.1035 11.5991 35.1035V26.5498C11.7126 26.5498 11.8214 26.5949 11.9016 26.6751L5.85316 32.7234Z" fill="#EA2F3E" mask="url(#path-1-inside-1_166_2675)"/>
<path d="M17.2177 43.3666V42.9106C17.2177 42.6946 17.2937 42.5346 17.4457 42.4306C17.6057 42.3266 17.7897 42.2746 17.9977 42.2746C18.2057 42.2746 18.3857 42.3266 18.5377 42.4306C18.6977 42.5346 18.7777 42.6946 18.7777 42.9106V43.3666H21.7417C21.9177 43.3666 22.0457 43.4266 22.1257 43.5466C22.2057 43.6666 22.2457 43.8066 22.2457 43.9666C22.2457 44.1186 22.2057 44.2546 22.1257 44.3746C22.0457 44.4946 21.9177 44.5546 21.7417 44.5546H14.2537C14.0777 44.5546 13.9497 44.4946 13.8697 44.3746C13.7897 44.2546 13.7497 44.1186 13.7497 43.9666C13.7497 43.8066 13.7897 43.6666 13.8697 43.5466C13.9497 43.4266 14.0777 43.3666 14.2537 43.3666H17.2177ZM14.6497 46.4986C14.6497 45.9386 14.9457 45.5346 15.5377 45.2866C16.1377 45.0386 16.9577 44.9146 17.9977 44.9146C19.0377 44.9146 19.8537 45.0386 20.4457 45.2866C21.0457 45.5346 21.3457 45.9386 21.3457 46.4986C21.3457 46.7786 21.2657 47.0186 21.1057 47.2186C20.9537 47.4186 20.7337 47.5826 20.4457 47.7106C20.1577 47.8386 19.8057 47.9346 19.3897 47.9986C18.9817 48.0546 18.5177 48.0826 17.9977 48.0826C17.4777 48.0826 17.0097 48.0546 16.5937 47.9986C16.1857 47.9346 15.8377 47.8386 15.5497 47.7106C15.2617 47.5826 15.0377 47.4186 14.8777 47.2186C14.7257 47.0186 14.6497 46.7786 14.6497 46.4986ZM19.8697 46.4986C19.8697 46.3386 19.7297 46.2186 19.4497 46.1386C19.1697 46.0506 18.6857 46.0066 17.9977 46.0066C17.3097 46.0066 16.8257 46.0506 16.5457 46.1386C16.2657 46.2186 16.1257 46.3386 16.1257 46.4986C16.1257 46.6586 16.2657 46.7826 16.5457 46.8706C16.8257 46.9506 17.3097 46.9906 17.9977 46.9906C18.6857 46.9906 19.1697 46.9506 19.4497 46.8706C19.7297 46.7826 19.8697 46.6586 19.8697 46.4986ZM13.4257 49.8826C13.2497 49.8826 13.1217 49.8226 13.0417 49.7026C12.9617 49.5826 12.9217 49.4466 12.9217 49.2946C12.9217 49.1346 12.9617 48.9946 13.0417 48.8746C13.1217 48.7546 13.2497 48.6946 13.4257 48.6946H17.2417V47.4946H18.7537V48.6946H22.5697C22.7457 48.6946 22.8737 48.7546 22.9537 48.8746C23.0337 48.9946 23.0737 49.1346 23.0737 49.2946C23.0737 49.4466 23.0337 49.5826 22.9537 49.7026C22.8737 49.8226 22.7457 49.8826 22.5697 49.8826H13.4257ZM15.2857 53.7706C14.9017 53.7706 14.6337 53.6986 14.4817 53.5546C14.3377 53.4106 14.2657 53.1506 14.2657 52.7746V51.3946C14.2657 51.0186 14.3377 50.7586 14.4817 50.6146C14.6337 50.4706 14.9017 50.3986 15.2857 50.3986H20.7097C21.0937 50.3986 21.3577 50.4706 21.5017 50.6146C21.6537 50.7586 21.7297 51.0186 21.7297 51.3946V52.7746C21.7297 53.1506 21.6537 53.4106 21.5017 53.5546C21.3577 53.6986 21.0937 53.7706 20.7097 53.7706H15.2857ZM15.7417 52.3186C15.7417 52.5026 15.8337 52.5946 16.0177 52.5946H19.9777C20.1617 52.5946 20.2537 52.5026 20.2537 52.3186V51.8506C20.2537 51.6666 20.1617 51.5746 19.9777 51.5746H16.0177C15.8337 51.5746 15.7417 51.6666 15.7417 51.8506V52.3186Z" fill="#EA2F3E"/>
</svg>
