<svg width="36" height="55" viewBox="0 0 36 55" fill="none" xmlns="http://www.w3.org/2000/svg">
<mask id="path-1-inside-1_166_2671" fill="white">
<path d="M28.2789 15.4325C28.2789 15.0922 28.1437 14.7659 27.9031 14.5252C27.6625 14.2846 27.3361 14.1494 26.9958 14.1494C26.6555 14.1494 26.3292 14.2846 26.0886 14.5252C25.848 14.7659 25.7128 15.0922 25.7128 15.4325H28.2789ZM10.3161 15.4325C10.3161 15.0922 10.1809 14.7659 9.94029 14.5252C9.69967 14.2846 9.37332 14.1494 9.03303 14.1494C8.69274 14.1494 8.36639 14.2846 8.12577 14.5252C7.88515 14.7659 7.74997 15.0922 7.74997 15.4325H10.3161ZM28.6548 18.9058C28.8968 19.1395 29.2209 19.2688 29.5573 19.2659C29.8937 19.263 30.2155 19.128 30.4534 18.8902C30.6913 18.6523 30.8263 18.3304 30.8292 17.994C30.8321 17.6576 30.7028 17.3335 30.4691 17.0915L28.6548 18.9058ZM18.0144 6.45101L18.9216 5.54388C18.6809 5.30334 18.3547 5.16821 18.0144 5.16821C17.6742 5.16821 17.3479 5.30334 17.1073 5.54388L18.0144 6.45101ZM5.55979 17.0915C5.43725 17.2099 5.3395 17.3515 5.27226 17.508C5.20501 17.6645 5.16962 17.8329 5.16814 18.0033C5.16666 18.1736 5.19912 18.3426 5.26364 18.5003C5.32815 18.658 5.42342 18.8012 5.54389 18.9217C5.66436 19.0422 5.80762 19.1374 5.9653 19.2019C6.12298 19.2665 6.29193 19.2989 6.4623 19.2974C6.63266 19.296 6.80102 19.2606 6.95756 19.1933C7.1141 19.1261 7.25568 19.0283 7.37404 18.9058L5.55979 17.0915ZM11.5991 30.8294H24.4297V28.2632H11.5991V30.8294ZM28.2789 26.9801V15.4325H25.7128V26.9801H28.2789ZM10.3161 26.9801V15.4325H7.74997V26.9801H10.3161ZM30.4691 17.0915L18.9216 5.54388L17.1073 7.35814L28.6548 18.9058L30.4691 17.0915ZM17.1073 5.54388L5.55979 17.0915L7.37404 18.9058L18.9216 7.35814L17.1073 5.54388ZM24.4297 30.8294C25.4506 30.8294 26.4296 30.4238 27.1515 29.702C27.8734 28.9801 28.2789 28.001 28.2789 26.9801H25.7128C25.7128 27.3204 25.5776 27.6468 25.337 27.8874C25.0964 28.128 24.77 28.2632 24.4297 28.2632V30.8294ZM11.5991 28.2632C11.2589 28.2632 10.9325 28.128 10.6919 27.8874C10.4513 27.6468 10.3161 27.3204 10.3161 26.9801H7.74997C7.74997 28.001 8.15551 28.9801 8.87737 29.702C9.59923 30.4238 10.5783 30.8294 11.5991 30.8294V28.2632Z"/>
</mask>
<path d="M28.2789 15.4325C28.2789 15.0922 28.1437 14.7659 27.9031 14.5252C27.6625 14.2846 27.3361 14.1494 26.9958 14.1494C26.6555 14.1494 26.3292 14.2846 26.0886 14.5252C25.848 14.7659 25.7128 15.0922 25.7128 15.4325H28.2789ZM10.3161 15.4325C10.3161 15.0922 10.1809 14.7659 9.94029 14.5252C9.69967 14.2846 9.37332 14.1494 9.03303 14.1494C8.69274 14.1494 8.36639 14.2846 8.12577 14.5252C7.88515 14.7659 7.74997 15.0922 7.74997 15.4325H10.3161ZM28.6548 18.9058C28.8968 19.1395 29.2209 19.2688 29.5573 19.2659C29.8937 19.263 30.2155 19.128 30.4534 18.8902C30.6913 18.6523 30.8263 18.3304 30.8292 17.994C30.8321 17.6576 30.7028 17.3335 30.4691 17.0915L28.6548 18.9058ZM18.0144 6.45101L18.9216 5.54388C18.6809 5.30334 18.3547 5.16821 18.0144 5.16821C17.6742 5.16821 17.3479 5.30334 17.1073 5.54388L18.0144 6.45101ZM5.55979 17.0915C5.43725 17.2099 5.3395 17.3515 5.27226 17.508C5.20501 17.6645 5.16962 17.8329 5.16814 18.0033C5.16666 18.1736 5.19912 18.3426 5.26364 18.5003C5.32815 18.658 5.42342 18.8012 5.54389 18.9217C5.66436 19.0422 5.80762 19.1374 5.9653 19.2019C6.12298 19.2665 6.29193 19.2989 6.4623 19.2974C6.63266 19.296 6.80102 19.2606 6.95756 19.1933C7.1141 19.1261 7.25568 19.0283 7.37404 18.9058L5.55979 17.0915ZM11.5991 30.8294H24.4297V28.2632H11.5991V30.8294ZM28.2789 26.9801V15.4325H25.7128V26.9801H28.2789ZM10.3161 26.9801V15.4325H7.74997V26.9801H10.3161ZM30.4691 17.0915L18.9216 5.54388L17.1073 7.35814L28.6548 18.9058L30.4691 17.0915ZM17.1073 5.54388L5.55979 17.0915L7.37404 18.9058L18.9216 7.35814L17.1073 5.54388ZM24.4297 30.8294C25.4506 30.8294 26.4296 30.4238 27.1515 29.702C27.8734 28.9801 28.2789 28.001 28.2789 26.9801H25.7128C25.7128 27.3204 25.5776 27.6468 25.337 27.8874C25.0964 28.128 24.77 28.2632 24.4297 28.2632V30.8294ZM11.5991 28.2632C11.2589 28.2632 10.9325 28.128 10.6919 27.8874C10.4513 27.6468 10.3161 27.3204 10.3161 26.9801H7.74997C7.74997 28.001 8.15551 28.9801 8.87737 29.702C9.59923 30.4238 10.5783 30.8294 11.5991 30.8294V28.2632Z" fill="#AAABAC"/>
<path d="M25.7128 17.5709H28.2789V13.2941H25.7128V17.5709ZM7.74997 17.5709H10.3161V13.2941H7.74997V17.5709ZM28.957 15.5794L27.1427 17.3937L30.1669 20.4179L31.9812 18.6036L28.957 15.5794ZM8.88614 17.3937L7.0719 15.5794L4.04769 18.6036L5.86193 20.4179L8.88614 17.3937ZM26.5681 30.8294V28.2632H22.2913V30.8294H26.5681ZM9.46071 28.2632V30.8294H13.7376V28.2632H9.46071ZM25.7128 29.1186H28.2789V24.8417H25.7128V29.1186ZM7.74997 29.1186H10.3161V24.8417H7.74997V29.1186ZM7.74997 15.4325H3.47311H7.74997ZM28.6548 18.9058L25.6306 21.93L25.6569 21.9562L25.6836 21.9821L28.6548 18.9058ZM30.4691 17.0915L33.5454 14.1204L33.5196 14.0936L33.4933 14.0673L30.4691 17.0915ZM18.0144 6.45101L14.9902 9.47519L18.0144 12.4994L21.0386 9.47519L18.0144 6.45101ZM18.9216 5.54388L21.9458 2.5197L21.9453 2.51924L18.9216 5.54388ZM17.1073 5.54388L14.0836 2.51924L14.0831 2.5197L17.1073 5.54388ZM5.55979 17.0915L8.53099 20.1678L8.55773 20.142L8.584 20.1157L5.55979 17.0915ZM7.37404 18.9058L4.34982 15.8816L4.32355 15.9079L4.29773 15.9346L7.37404 18.9058ZM11.5991 30.8294V35.1062V30.8294ZM24.4297 30.8294V35.1062V30.8294ZM28.2789 26.9801H32.5557H28.2789ZM17.1073 7.35814L14.0831 4.33396L11.059 7.35814L14.0831 10.3823L17.1073 7.35814ZM18.9216 7.35814L21.9458 10.3823L24.9699 7.35814L21.9458 4.33396L18.9216 7.35814ZM32.5557 15.4325C32.5557 13.9579 31.97 12.5438 30.9273 11.5011L24.8789 17.5494C24.3174 16.988 24.002 16.2265 24.002 15.4325H32.5557ZM30.9273 11.5011C29.8846 10.4584 28.4704 9.87258 26.9958 9.87258V18.4263C26.2018 18.4263 25.4403 18.1109 24.8789 17.5494L30.9273 11.5011ZM26.9958 9.87258C25.5212 9.87258 24.107 10.4584 23.0644 11.5011L29.1128 17.5494C28.5513 18.1109 27.7899 18.4263 26.9958 18.4263V9.87258ZM23.0644 11.5011C22.0217 12.5438 21.4359 13.9579 21.4359 15.4325H29.9896C29.9896 16.2265 29.6742 16.988 29.1128 17.5494L23.0644 11.5011ZM14.5929 15.4325C14.5929 13.9579 14.0072 12.5438 12.9645 11.5011L6.91608 17.5494C6.35464 16.988 6.03923 16.2265 6.03923 15.4325H14.5929ZM12.9645 11.5011C11.9218 10.4584 10.5076 9.87258 9.03303 9.87258V18.4263C8.23901 18.4263 7.47752 18.1109 6.91608 17.5494L12.9645 11.5011ZM9.03303 9.87258C7.55843 9.87258 6.14424 10.4584 5.10156 11.5011L11.15 17.5494C10.5885 18.1109 9.82705 18.4263 9.03303 18.4263V9.87258ZM5.10156 11.5011C4.05888 12.5438 3.47311 13.9579 3.47311 15.4325H12.0268C12.0268 16.2265 11.7114 16.988 11.15 17.5494L5.10156 11.5011ZM25.6836 21.9821C26.7322 22.9949 28.1367 23.5553 29.5945 23.5426L29.5202 14.9892C30.3051 14.9824 31.0614 15.2842 31.626 15.8295L25.6836 21.9821ZM29.5945 23.5426C31.0523 23.5299 32.4468 22.9452 33.4777 21.9143L27.4292 15.866C27.9843 15.3109 28.7352 14.996 29.5202 14.9892L29.5945 23.5426ZM33.4777 21.9143C34.5085 20.8835 35.0932 19.489 35.1059 18.0312L26.5525 17.9569C26.5593 17.1719 26.8742 16.421 27.4292 15.866L33.4777 21.9143ZM35.1059 18.0312C35.1186 16.5734 34.5582 15.169 33.5454 14.1204L27.3928 20.0627C26.8474 19.498 26.5457 18.7418 26.5525 17.9569L35.1059 18.0312ZM21.0386 9.47519L21.9458 8.56806L15.8973 2.5197L14.9902 3.42683L21.0386 9.47519ZM21.9453 2.51924C20.9027 1.47691 19.4887 0.891355 18.0144 0.891355V9.44507C17.2206 9.44507 16.4592 9.12977 15.8978 8.56851L21.9453 2.51924ZM18.0144 0.891355C16.5401 0.891355 15.1262 1.47691 14.0836 2.51924L20.1311 8.56851C19.5696 9.12977 18.8083 9.44507 18.0144 9.44507V0.891355ZM14.0831 8.56806L14.9902 9.47519L21.0386 3.42683L20.1315 2.5197L14.0831 8.56806ZM2.58859 14.0152C2.05757 14.5281 1.634 15.1416 1.34262 15.82L9.2019 19.196C9.045 19.5613 8.81693 19.8916 8.53099 20.1678L2.58859 14.0152ZM1.34262 15.82C1.05123 16.4983 0.897858 17.2279 0.891443 17.9661L9.44484 18.0404C9.44138 18.4379 9.3588 18.8308 9.2019 19.196L1.34262 15.82ZM0.891443 17.9661C0.885028 18.7043 1.0257 19.4365 1.30525 20.1198L9.22202 16.8808C9.37254 17.2487 9.44829 17.6429 9.44484 18.0404L0.891443 17.9661ZM1.30525 20.1198C1.58481 20.8031 1.99765 21.4238 2.51968 21.9459L8.5681 15.8975C8.84919 16.1786 9.07149 16.5129 9.22202 16.8808L1.30525 20.1198ZM2.51968 21.9459C3.04171 22.4679 3.66249 22.8807 4.34578 23.1603L7.58481 15.2436C7.95274 15.3941 8.28701 15.6164 8.5681 15.8975L2.51968 21.9459ZM4.34578 23.1603C5.02907 23.4399 5.7612 23.5806 6.49946 23.5741L6.42513 15.0207C6.82267 15.0173 7.2169 15.093 7.58481 15.2436L4.34578 23.1603ZM6.49946 23.5741C7.23771 23.5677 7.96729 23.4143 8.64562 23.1229L5.2695 15.2637C5.63476 15.1068 6.02761 15.0242 6.42513 15.0207L6.49946 23.5741ZM8.64562 23.1229C9.32397 22.8315 9.93747 22.408 10.4503 21.8769L4.29773 15.9346C4.57388 15.6487 4.90423 15.4206 5.2695 15.2637L8.64562 23.1229ZM11.5991 35.1062H24.4297V26.5525H11.5991V35.1062ZM24.4297 23.9864H11.5991V32.5401H24.4297V23.9864ZM32.5557 26.9801V15.4325H24.002V26.9801H32.5557ZM21.4359 15.4325V26.9801H29.9896V15.4325H21.4359ZM14.5929 26.9801V15.4325H6.03923V26.9801H14.5929ZM3.47311 15.4325V26.9801H12.0268V15.4325H3.47311ZM33.4933 14.0673L21.9458 2.5197L15.8973 8.56806L27.4449 20.1157L33.4933 14.0673ZM15.8973 2.5197L14.0831 4.33396L20.1315 10.3823L21.9458 8.56806L15.8973 2.5197ZM14.0831 10.3823L25.6306 21.93L31.679 15.8816L20.1315 4.33396L14.0831 10.3823ZM14.0831 2.5197L2.53558 14.0673L8.584 20.1157L20.1315 8.56806L14.0831 2.5197ZM10.3982 21.93L21.9458 10.3823L15.8973 4.33396L4.34982 15.8816L10.3982 21.93ZM21.9458 4.33396L20.1315 2.5197L14.0831 8.56806L15.8973 10.3823L21.9458 4.33396ZM24.4297 35.1062C26.5849 35.1062 28.6518 34.2501 30.1757 32.7261L24.1273 26.6778C24.2075 26.5976 24.3163 26.5525 24.4297 26.5525V35.1062ZM30.1757 32.7261C31.6996 31.2022 32.5557 29.1353 32.5557 26.9801H24.002C24.002 26.8667 24.0471 26.758 24.1273 26.6778L30.1757 32.7261ZM21.4359 26.9801C21.4359 26.1862 21.7513 25.4247 22.3128 24.8632L28.3612 30.9116C29.4039 29.8689 29.9896 28.4547 29.9896 26.9801H21.4359ZM22.3128 24.8632C22.8742 24.3018 23.6357 23.9864 24.4297 23.9864V32.5401C25.9043 32.5401 27.3185 31.9543 28.3612 30.9116L22.3128 24.8632ZM11.5991 23.9864C12.3932 23.9864 13.1546 24.3018 13.7161 24.8632L7.66767 30.9116C8.71036 31.9543 10.1246 32.5401 11.5991 32.5401V23.9864ZM13.7161 24.8632C14.2775 25.4247 14.5929 26.1862 14.5929 26.9801H6.03923C6.03923 28.4547 6.62499 29.8689 7.66767 30.9116L13.7161 24.8632ZM3.47311 26.9801C3.47311 29.1353 4.32924 31.2022 5.85316 32.7261L11.9016 26.6778C11.9818 26.758 12.0268 26.8667 12.0268 26.9801H3.47311ZM5.85316 32.7261C7.37708 34.2501 9.44397 35.1062 11.5991 35.1062V26.5525C11.7126 26.5525 11.8214 26.5976 11.9016 26.6778L5.85316 32.7261Z" fill="#AAABAC" mask="url(#path-1-inside-1_166_2671)"/>
<path d="M17.9977 42.3853C18.1097 42.3853 18.2097 42.4133 18.2977 42.4693C18.3937 42.5253 18.4417 42.6173 18.4417 42.7453V43.5373H21.8497C21.9457 43.5373 22.0177 43.5733 22.0657 43.6453C22.1137 43.7173 22.1377 43.8013 22.1377 43.8973C22.1377 43.9933 22.1137 44.0773 22.0657 44.1493C22.0177 44.2213 21.9457 44.2573 21.8497 44.2573H14.1457C14.0497 44.2573 13.9777 44.2213 13.9297 44.1493C13.8817 44.0773 13.8577 43.9933 13.8577 43.8973C13.8577 43.8013 13.8817 43.7173 13.9297 43.6453C13.9777 43.5733 14.0497 43.5373 14.1457 43.5373H17.5537V42.7453C17.5537 42.6173 17.5977 42.5253 17.6857 42.4693C17.7817 42.4133 17.8857 42.3853 17.9977 42.3853ZM17.9977 44.9413C18.9977 44.9413 19.7737 45.0653 20.3257 45.3133C20.8857 45.5533 21.1657 45.9373 21.1657 46.4653C21.1657 46.9933 20.8857 47.3813 20.3257 47.6293C19.7737 47.8773 18.9977 48.0013 17.9977 48.0013C16.9977 48.0013 16.2177 47.8773 15.6577 47.6293C15.1057 47.3813 14.8297 46.9933 14.8297 46.4653C14.8297 45.9373 15.1057 45.5533 15.6577 45.3133C16.2177 45.0653 16.9977 44.9413 17.9977 44.9413ZM17.9977 45.6133C16.4537 45.6133 15.6817 45.8973 15.6817 46.4653C15.6817 47.0333 16.4537 47.3173 17.9977 47.3173C19.5417 47.3173 20.3137 47.0333 20.3137 46.4653C20.3137 45.8973 19.5417 45.6133 17.9977 45.6133ZM18.4297 48.9493H22.7137C22.8097 48.9493 22.8817 48.9853 22.9297 49.0573C22.9777 49.1293 23.0017 49.2133 23.0017 49.3093C23.0017 49.3973 22.9777 49.4773 22.9297 49.5493C22.8817 49.6213 22.8097 49.6573 22.7137 49.6573H13.2817C13.1857 49.6573 13.1137 49.6213 13.0657 49.5493C13.0177 49.4773 12.9937 49.3973 12.9937 49.3093C12.9937 49.2133 13.0177 49.1293 13.0657 49.0573C13.1137 48.9853 13.1857 48.9493 13.2817 48.9493H17.5657V47.6773H18.4297V48.9493ZM20.6977 50.5573C21.0097 50.5573 21.2257 50.6173 21.3457 50.7373C21.4657 50.8493 21.5257 51.0573 21.5257 51.3613V52.8373C21.5257 53.1413 21.4657 53.3493 21.3457 53.4613C21.2257 53.5813 21.0097 53.6413 20.6977 53.6413H15.2977C14.9857 53.6413 14.7697 53.5813 14.6497 53.4613C14.5297 53.3493 14.4697 53.1413 14.4697 52.8373V51.3613C14.4697 51.0573 14.5297 50.8493 14.6497 50.7373C14.7697 50.6173 14.9857 50.5573 15.2977 50.5573H20.6977ZM15.5497 51.2653C15.3977 51.2653 15.3217 51.3373 15.3217 51.4813V52.7173C15.3217 52.8693 15.3977 52.9453 15.5497 52.9453H20.4457C20.5977 52.9453 20.6737 52.8693 20.6737 52.7173V51.4813C20.6737 51.3373 20.5977 51.2653 20.4457 51.2653H15.5497Z" fill="#AAABAC"/>
</svg>
