<svg width="43" height="55" viewBox="0 0 43 55" fill="none" xmlns="http://www.w3.org/2000/svg">
<path d="M11.041 9H31.041M11.041 17.55H31.041M11.041 27H31.041" stroke="#AAABAC" stroke-width="2.56611" stroke-linecap="round"/>
<path d="M10.5502 43.54C10.6622 43.54 10.7422 43.576 10.7902 43.648C10.8382 43.72 10.8622 43.808 10.8622 43.912C10.8622 44.024 10.8382 44.116 10.7902 44.188C10.7422 44.26 10.6622 44.296 10.5502 44.296H6.89023C6.73823 44.296 6.66223 44.372 6.66223 44.524V49.3C6.66223 49.452 6.73823 49.528 6.89023 49.528C7.77823 49.528 8.59023 49.504 9.32623 49.456C10.0622 49.408 10.7902 49.336 11.5102 49.24C11.6062 49.224 11.6862 49.248 11.7502 49.312C11.8142 49.368 11.8542 49.452 11.8702 49.564C11.8862 49.676 11.8702 49.776 11.8222 49.864C11.7822 49.944 11.7142 49.992 11.6182 50.008C11.3062 50.048 10.9742 50.088 10.6222 50.128C10.2782 50.16 9.90223 50.188 9.49423 50.212C9.09423 50.236 8.65423 50.256 8.17423 50.272C7.70223 50.28 7.18223 50.284 6.61423 50.284C6.30223 50.284 6.08623 50.228 5.96623 50.116C5.84623 49.996 5.78623 49.784 5.78623 49.48V44.344C5.78623 44.04 5.84623 43.832 5.96623 43.72C6.08623 43.6 6.30223 43.54 6.61423 43.54H10.5502ZM13.6582 42.712C13.7702 42.712 13.8702 42.74 13.9582 42.796C14.0462 42.852 14.0902 42.944 14.0902 43.072V52.624C14.0902 52.752 14.0462 52.844 13.9582 52.9C13.8702 52.956 13.7702 52.984 13.6582 52.984C13.5462 52.984 13.4462 52.956 13.3582 52.9C13.2702 52.844 13.2262 52.752 13.2262 52.624V47.152H10.4902C10.3782 47.152 10.2982 47.116 10.2502 47.044C10.2022 46.964 10.1782 46.872 10.1782 46.768C10.1782 46.656 10.2022 46.564 10.2502 46.492C10.2982 46.42 10.3782 46.384 10.4902 46.384H13.2262V43.072C13.2262 42.944 13.2702 42.852 13.3582 42.796C13.4462 42.74 13.5462 42.712 13.6582 42.712ZM17.8961 43.24C18.0081 43.24 18.1081 43.268 18.1961 43.324C18.2841 43.38 18.3281 43.472 18.3281 43.6V45.268H23.7521V43.6C23.7521 43.472 23.7961 43.38 23.8841 43.324C23.9721 43.268 24.0721 43.24 24.1841 43.24C24.2961 43.24 24.3961 43.268 24.4841 43.324C24.5721 43.38 24.6161 43.472 24.6161 43.6V47.908C24.6161 48.212 24.5561 48.424 24.4361 48.544C24.3161 48.656 24.1001 48.712 23.7881 48.712H18.2921C17.9801 48.712 17.7641 48.656 17.6441 48.544C17.5241 48.424 17.4641 48.212 17.4641 47.908V43.6C17.4641 43.472 17.5081 43.38 17.5961 43.324C17.6841 43.268 17.7841 43.24 17.8961 43.24ZM18.3281 47.74C18.3281 47.884 18.4041 47.956 18.5561 47.956H23.5241C23.6761 47.956 23.7521 47.884 23.7521 47.74V46.024H18.3281V47.74ZM21.4841 51.112H25.7321C25.8441 51.112 25.9241 51.148 25.9721 51.22C26.0201 51.292 26.0441 51.384 26.0441 51.496C26.0441 51.6 26.0201 51.688 25.9721 51.76C25.9241 51.832 25.8441 51.868 25.7321 51.868H16.3481C16.2361 51.868 16.1561 51.832 16.1081 51.76C16.0601 51.688 16.0361 51.6 16.0361 51.496C16.0361 51.384 16.0601 51.292 16.1081 51.22C16.1561 51.148 16.2361 51.112 16.3481 51.112H20.6081V48.172H21.4841V51.112ZM31.65 43.552C31.962 43.552 32.178 43.612 32.298 43.732C32.418 43.844 32.478 44.052 32.478 44.356V45.712C32.478 46.048 32.458 46.348 32.418 46.612C32.378 46.876 32.298 47.128 32.178 47.368C32.066 47.6 31.906 47.828 31.698 48.052C31.498 48.276 31.238 48.516 30.918 48.772C30.598 49.02 30.21 49.292 29.754 49.588C29.298 49.884 28.762 50.224 28.146 50.608C28.058 50.664 27.962 50.676 27.858 50.644C27.762 50.612 27.682 50.552 27.618 50.464C27.554 50.376 27.526 50.276 27.534 50.164C27.542 50.052 27.594 49.964 27.69 49.9C28.562 49.372 29.258 48.932 29.778 48.58C30.298 48.228 30.694 47.908 30.966 47.62C31.238 47.324 31.414 47.032 31.494 46.744C31.574 46.448 31.614 46.092 31.614 45.676V44.536C31.614 44.392 31.538 44.32 31.386 44.32H27.966C27.854 44.32 27.774 44.284 27.726 44.212C27.678 44.132 27.654 44.04 27.654 43.936C27.654 43.832 27.678 43.744 27.726 43.672C27.774 43.592 27.854 43.552 27.966 43.552H31.65ZM35.418 42.712C35.53 42.712 35.63 42.74 35.718 42.796C35.814 42.852 35.862 42.944 35.862 43.072V52.624C35.862 52.752 35.814 52.844 35.718 52.9C35.63 52.956 35.53 52.984 35.418 52.984C35.306 52.984 35.206 52.956 35.118 52.9C35.03 52.844 34.986 52.752 34.986 52.624V43.072C34.986 42.944 35.03 42.852 35.118 42.796C35.206 42.74 35.306 42.712 35.418 42.712Z" fill="#AAABAC"/>
</svg>
