<svg width="43" height="55" viewBox="0 0 43 55" fill="none" xmlns="http://www.w3.org/2000/svg">
<path d="M11.041 9H31.041M11.041 17.55H31.041M11.041 27H31.041" stroke="#EA2F3E" stroke-width="2.56611" stroke-linecap="round"/>
<path d="M7.40623 44.716C7.22223 44.716 7.13023 44.808 7.13023 44.992V48.832C7.13023 49.016 7.22223 49.108 7.40623 49.108C8.08623 49.108 8.73423 49.092 9.35023 49.06C9.97423 49.02 10.5782 48.96 11.1622 48.88C11.3462 48.856 11.4902 48.9 11.5942 49.012C11.7062 49.124 11.7702 49.268 11.7862 49.444C11.8022 49.628 11.7782 49.792 11.7142 49.936C11.6502 50.072 11.5302 50.152 11.3542 50.176C11.1062 50.208 10.8302 50.24 10.5262 50.272C10.2302 50.296 9.89023 50.32 9.50623 50.344C9.12223 50.368 8.69023 50.388 8.21023 50.404C7.73823 50.412 7.20623 50.416 6.61423 50.416C6.23023 50.416 5.96223 50.344 5.81023 50.2C5.66623 50.056 5.59423 49.796 5.59423 49.42V44.404C5.59423 44.028 5.66623 43.768 5.81023 43.624C5.96223 43.48 6.23023 43.408 6.61423 43.408H10.3582C10.5422 43.408 10.6782 43.472 10.7662 43.6C10.8542 43.728 10.8982 43.884 10.8982 44.068C10.8982 44.244 10.8542 44.396 10.7662 44.524C10.6782 44.652 10.5422 44.716 10.3582 44.716H7.40623ZM10.6822 47.428C10.4982 47.428 10.3622 47.364 10.2742 47.236C10.1862 47.108 10.1422 46.956 10.1422 46.78C10.1422 46.596 10.1862 46.44 10.2742 46.312C10.3622 46.184 10.4982 46.12 10.6822 46.12H12.7822V43.252C12.7822 43.028 12.8582 42.864 13.0102 42.76C13.1702 42.656 13.3502 42.604 13.5502 42.604C13.7422 42.604 13.9142 42.656 14.0662 42.76C14.2262 42.864 14.3062 43.028 14.3062 43.252V52.444C14.3062 52.668 14.2262 52.832 14.0662 52.936C13.9142 53.04 13.7422 53.092 13.5502 53.092C13.3502 53.092 13.1702 53.04 13.0102 52.936C12.8582 52.832 12.7822 52.668 12.7822 52.444V47.428H10.6822ZM18.2801 48.904C17.8961 48.904 17.6281 48.832 17.4761 48.688C17.3321 48.544 17.2601 48.284 17.2601 47.908V43.756C17.2601 43.54 17.3401 43.38 17.5001 43.276C17.6601 43.164 17.8361 43.108 18.0281 43.108C18.2201 43.108 18.3961 43.164 18.5561 43.276C18.7161 43.38 18.7961 43.54 18.7961 43.756V44.92H23.2841V43.756C23.2841 43.54 23.3641 43.38 23.5241 43.276C23.6841 43.164 23.8601 43.108 24.0521 43.108C24.2441 43.108 24.4201 43.164 24.5801 43.276C24.7401 43.38 24.8201 43.54 24.8201 43.756V47.908C24.8201 48.284 24.7441 48.544 24.5921 48.688C24.4481 48.832 24.1841 48.904 23.8001 48.904H18.2801ZM23.0081 47.62C23.1921 47.62 23.2841 47.528 23.2841 47.344V46.204H18.7961V47.344C18.7961 47.528 18.8881 47.62 19.0721 47.62H23.0081ZM16.5041 52.108C16.3201 52.108 16.1841 52.044 16.0961 51.916C16.0081 51.788 15.9641 51.636 15.9641 51.46C15.9641 51.284 16.0081 51.132 16.0961 51.004C16.1841 50.876 16.3201 50.812 16.5041 50.812H20.2721V48.172H21.8081V50.812H25.5761C25.7601 50.812 25.8961 50.876 25.9841 51.004C26.0721 51.132 26.1161 51.284 26.1161 51.46C26.1161 51.636 26.0721 51.788 25.9841 51.916C25.8961 52.044 25.7601 52.108 25.5761 52.108H16.5041ZM28.002 44.728C27.818 44.728 27.682 44.664 27.594 44.536C27.506 44.408 27.462 44.256 27.462 44.08C27.462 43.896 27.506 43.74 27.594 43.612C27.682 43.484 27.818 43.42 28.002 43.42H31.614C31.998 43.42 32.262 43.492 32.406 43.636C32.558 43.78 32.634 44.04 32.634 44.416V45.748C32.634 46.084 32.614 46.388 32.574 46.66C32.534 46.932 32.458 47.192 32.346 47.44C32.242 47.68 32.094 47.916 31.902 48.148C31.71 48.38 31.458 48.624 31.146 48.88C30.834 49.136 30.454 49.412 30.006 49.708C29.566 50.004 29.042 50.336 28.434 50.704C28.266 50.808 28.09 50.828 27.906 50.764C27.73 50.692 27.594 50.584 27.498 50.44C27.402 50.296 27.354 50.128 27.354 49.936C27.354 49.744 27.442 49.592 27.618 49.48C28.162 49.152 28.626 48.864 29.01 48.616C29.402 48.36 29.726 48.132 29.982 47.932C30.246 47.732 30.45 47.548 30.594 47.38C30.746 47.212 30.858 47.044 30.93 46.876C31.01 46.7 31.058 46.52 31.074 46.336C31.098 46.152 31.11 45.94 31.11 45.7V45.004C31.11 44.82 31.018 44.728 30.834 44.728H28.002ZM36.078 52.444C36.078 52.668 35.998 52.832 35.838 52.936C35.686 53.04 35.506 53.092 35.298 53.092C35.098 53.092 34.918 53.04 34.758 52.936C34.606 52.832 34.53 52.668 34.53 52.444V43.252C34.53 43.028 34.606 42.864 34.758 42.76C34.918 42.656 35.098 42.604 35.298 42.604C35.506 42.604 35.686 42.656 35.838 42.76C35.998 42.864 36.078 43.028 36.078 43.252V52.444Z" fill="#EA2F3E"/>
</svg>
